M48
;Layer_Color=9474304
;FILE_FORMAT=4:4
METRIC,LZ
;TYPE=PLATED
T01F00S00C0.3000
T02F00S00C0.3048
T04F00S00C0.8000
T05F00S00C0.8890
T07F00S00C1.4000
T08F00S00C3.2000
;TYPE=NON_PLATED
T09F00S00C0.6500
%
T01
X0097263Y0070851
X0098363
X0098913Y0071401
X0098363Y0071951
X0098913Y0072501
X0098363Y0073051
X0097813Y0072501
X0096713
X0097263Y0073051
Y0071951
X0097813Y0071401
X0096713
T02
X008001Y0054229
X0088392Y00508
X0094107Y0054229
X0096266Y0062865
X0098425Y0062357
X0100203
X0099695Y0062992
X0104648Y0062611
Y0065659
X0088392Y0062865
X0089281Y0074676
X0079502Y0077724
X0078867Y0072644
X0077724Y0071755
Y0070739
X00742295Y00681109
X0075057Y006604
X0073279Y0065532
X0073787Y0064897
X0073406Y0062357
X0074422Y0054864
X0076962Y0052324
X0064389Y0051689
Y0049403
X0058166Y0054991
X0052197Y0052451
X0049149Y004953
X0044323Y004826
X0043688Y0046101
X0057658Y0044323
X0052578Y0059436
X005715Y00693293
Y0072517
X006223Y0070866
X0063754Y0070739
X0065532Y0076454
X0073533Y0078867
X0073025Y0073406
X006731Y0066167
X0041656Y006985
X0039751Y007112
X00416368Y00767852
X00415888Y00779108
X0043434Y0076581
X00392333Y00759363
X0037592Y0078867
X0034544Y007747
X0034163Y0075692
X0031877Y0070485
X0028829Y0070612
X0028194Y0066421
X0029083Y0060579
X0033147Y0058039
X0034671Y0062992
X0037973Y0060071
X0037338Y0066548
X0037592Y0069723
X0036322Y0069469
X0037592Y0051181
X00347876Y00796716
X0034036Y0080772
X0034417Y008255
X003429Y0084074
X0037846Y008382
X0035052Y0090551
X0028829Y0091567
X0036576Y009779
X0035052Y010414
X0041148Y0093853
X0045466Y0096012
X0045085Y0089789
X0044069Y0085725
X0052451Y0088138
X0052959Y0080772
X0049276Y0079502
X0063119Y0082169
X0061595Y0088265
X0061468Y0090043
X0061722Y0091694
Y009271
X0060579Y0098298
X00676336Y00972662
X0070739Y0097536
X006985Y0095377
X0068707Y0092075
X0074041Y0098552
X0075184Y010541
X0055626Y0103124
X0054483Y0095885
X0048895Y0099949
X0087757Y0099695
X0090932Y0106172
X0097282Y0106299
X009779Y0102108
X0100962Y00982467
X0100203Y0090805
X0097536Y0087757
X01009412Y00836692
X0101473Y0083058
X0102616Y0083693
X0104775Y0083058
X0090805Y0082804
X0086233Y0083439
X0085979Y0090932
X00889Y00905637
Y0089408
X0079883Y0090551
X00797996Y00794584
T04
X0049276Y0102997
Y0105497
T05
X0079502Y004572
X0083566
X0086106
X0088646
X0091186
X0093726
X0097536
X0100076
X0102616
X0103124Y0060706
X0100584
X0098044
X0095504
X0092964
X0081534Y0061976
Y0064516
Y0067056
Y0069596
Y0072136
Y007493
Y007747
X0059182Y0076581
Y0074041
Y0071501
Y006858
Y006604
Y00635
Y006096
X0065405Y0058293
X0067945
X0070485
X0073025
X0075565
X0074422Y004572
X0071882
X0068072
X0065532
X0062992
X0076962
X0059182Y0079121
Y0081661
X0061468Y0085217
X0064008
X0066548
X0069088
X0071628
X0074549
X0077089
X0079629
X0082169
X009144Y0085471
X009398
X009652
X009906
X01016
X010414
T07
X0067096Y0105156
X0072096Y0105029
X0078232Y0105156
X0083232Y0105029
T08
X0034544Y0053594
X0099695Y0103759
T09
X00317825Y0076485
Y0082265
M30
