G04*
G04 #@! TF.GenerationSoftware,Altium Limited,Altium Designer,25.7.1 (20)*
G04*
G04 Layer_Physical_Order=1*
G04 Layer_Color=255*
%FSLAX44Y44*%
%MOMM*%
G71*
G04*
G04 #@! TF.SameCoordinates,ACE3B5E4-1C04-4BC4-97EB-CB57C6339309*
G04*
G04*
G04 #@! TF.FilePolarity,Positive*
G04*
G01*
G75*
%ADD15C,0.2540*%
%ADD16R,1.3000X1.5000*%
%ADD17R,1.0160X0.9398*%
G04:AMPARAMS|DCode=18|XSize=0.6mm|YSize=1.15mm|CornerRadius=0.15mm|HoleSize=0mm|Usage=FLASHONLY|Rotation=270.000|XOffset=0mm|YOffset=0mm|HoleType=Round|Shape=RoundedRectangle|*
%AMROUNDEDRECTD18*
21,1,0.6000,0.8500,0,0,270.0*
21,1,0.3000,1.1500,0,0,270.0*
1,1,0.3000,-0.4250,-0.1500*
1,1,0.3000,-0.4250,0.1500*
1,1,0.3000,0.4250,0.1500*
1,1,0.3000,0.4250,-0.1500*
%
%ADD18ROUNDEDRECTD18*%
%ADD19R,0.9398X1.0160*%
G04:AMPARAMS|DCode=20|XSize=1.2mm|YSize=0.6mm|CornerRadius=0.15mm|HoleSize=0mm|Usage=FLASHONLY|Rotation=0.000|XOffset=0mm|YOffset=0mm|HoleType=Round|Shape=RoundedRectangle|*
%AMROUNDEDRECTD20*
21,1,1.2000,0.3000,0,0,0.0*
21,1,0.9000,0.6000,0,0,0.0*
1,1,0.3000,0.4500,-0.1500*
1,1,0.3000,-0.4500,-0.1500*
1,1,0.3000,-0.4500,0.1500*
1,1,0.3000,0.4500,0.1500*
%
%ADD20ROUNDEDRECTD20*%
%ADD21R,1.5000X1.3000*%
%ADD22R,1.1938X0.3048*%
%ADD23R,0.3048X1.1938*%
G04:AMPARAMS|DCode=24|XSize=1.35mm|YSize=1.1mm|CornerRadius=0.275mm|HoleSize=0mm|Usage=FLASHONLY|Rotation=90.000|XOffset=0mm|YOffset=0mm|HoleType=Round|Shape=RoundedRectangle|*
%AMROUNDEDRECTD24*
21,1,1.3500,0.5500,0,0,90.0*
21,1,0.8000,1.1000,0,0,90.0*
1,1,0.5500,0.2750,0.4000*
1,1,0.5500,0.2750,-0.4000*
1,1,0.5500,-0.2750,-0.4000*
1,1,0.5500,-0.2750,0.4000*
%
%ADD24ROUNDEDRECTD24*%
G04:AMPARAMS|DCode=25|XSize=0.9mm|YSize=0.3mm|CornerRadius=0.075mm|HoleSize=0mm|Usage=FLASHONLY|Rotation=270.000|XOffset=0mm|YOffset=0mm|HoleType=Round|Shape=RoundedRectangle|*
%AMROUNDEDRECTD25*
21,1,0.9000,0.1500,0,0,270.0*
21,1,0.7500,0.3000,0,0,270.0*
1,1,0.1500,-0.0750,-0.3750*
1,1,0.1500,-0.0750,0.3750*
1,1,0.1500,0.0750,0.3750*
1,1,0.1500,0.0750,-0.3750*
%
%ADD25ROUNDEDRECTD25*%
G04:AMPARAMS|DCode=26|XSize=1.8mm|YSize=1.8mm|CornerRadius=0.45mm|HoleSize=0mm|Usage=FLASHONLY|Rotation=270.000|XOffset=0mm|YOffset=0mm|HoleType=Round|Shape=RoundedRectangle|*
%AMROUNDEDRECTD26*
21,1,1.8000,0.9000,0,0,270.0*
21,1,0.9000,1.8000,0,0,270.0*
1,1,0.9000,-0.4500,-0.4500*
1,1,0.9000,-0.4500,0.4500*
1,1,0.9000,0.4500,0.4500*
1,1,0.9000,0.4500,-0.4500*
%
%ADD26ROUNDEDRECTD26*%
G04:AMPARAMS|DCode=27|XSize=0.65mm|YSize=1.3mm|CornerRadius=0.1625mm|HoleSize=0mm|Usage=FLASHONLY|Rotation=0.000|XOffset=0mm|YOffset=0mm|HoleType=Round|Shape=RoundedRectangle|*
%AMROUNDEDRECTD27*
21,1,0.6500,0.9750,0,0,0.0*
21,1,0.3250,1.3000,0,0,0.0*
1,1,0.3250,0.1625,-0.4875*
1,1,0.3250,-0.1625,-0.4875*
1,1,0.3250,-0.1625,0.4875*
1,1,0.3250,0.1625,0.4875*
%
%ADD27ROUNDEDRECTD27*%
G04:AMPARAMS|DCode=28|XSize=0.65mm|YSize=1.3mm|CornerRadius=0.1625mm|HoleSize=0mm|Usage=FLASHONLY|Rotation=90.000|XOffset=0mm|YOffset=0mm|HoleType=Round|Shape=RoundedRectangle|*
%AMROUNDEDRECTD28*
21,1,0.6500,0.9750,0,0,90.0*
21,1,0.3250,1.3000,0,0,90.0*
1,1,0.3250,0.4875,0.1625*
1,1,0.3250,0.4875,-0.1625*
1,1,0.3250,-0.4875,-0.1625*
1,1,0.3250,-0.4875,0.1625*
%
%ADD28ROUNDEDRECTD28*%
G04:AMPARAMS|DCode=29|XSize=0.6mm|YSize=1.5mm|CornerRadius=0.15mm|HoleSize=0mm|Usage=FLASHONLY|Rotation=180.000|XOffset=0mm|YOffset=0mm|HoleType=Round|Shape=RoundedRectangle|*
%AMROUNDEDRECTD29*
21,1,0.6000,1.2000,0,0,180.0*
21,1,0.3000,1.5000,0,0,180.0*
1,1,0.3000,-0.1500,0.6000*
1,1,0.3000,0.1500,0.6000*
1,1,0.3000,0.1500,-0.6000*
1,1,0.3000,-0.1500,-0.6000*
%
%ADD29ROUNDEDRECTD29*%
%ADD30R,0.9000X1.5000*%
%ADD31R,0.7000X0.7000*%
G04:AMPARAMS|DCode=32|XSize=0.3mm|YSize=1.15mm|CornerRadius=0.075mm|HoleSize=0mm|Usage=FLASHONLY|Rotation=270.000|XOffset=0mm|YOffset=0mm|HoleType=Round|Shape=RoundedRectangle|*
%AMROUNDEDRECTD32*
21,1,0.3000,1.0000,0,0,270.0*
21,1,0.1500,1.1500,0,0,270.0*
1,1,0.1500,-0.5000,-0.0750*
1,1,0.1500,-0.5000,0.0750*
1,1,0.1500,0.5000,0.0750*
1,1,0.1500,0.5000,-0.0750*
%
%ADD32ROUNDEDRECTD32*%
%ADD33R,1.2000X1.2000*%
G04:AMPARAMS|DCode=34|XSize=0.9mm|YSize=0.3mm|CornerRadius=0.075mm|HoleSize=0mm|Usage=FLASHONLY|Rotation=0.000|XOffset=0mm|YOffset=0mm|HoleType=Round|Shape=RoundedRectangle|*
%AMROUNDEDRECTD34*
21,1,0.9000,0.1500,0,0,0.0*
21,1,0.7500,0.3000,0,0,0.0*
1,1,0.1500,0.3750,-0.0750*
1,1,0.1500,-0.3750,-0.0750*
1,1,0.1500,-0.3750,0.0750*
1,1,0.1500,0.3750,0.0750*
%
%ADD34ROUNDEDRECTD34*%
G04:AMPARAMS|DCode=35|XSize=0.3mm|YSize=0.3mm|CornerRadius=0.075mm|HoleSize=0mm|Usage=FLASHONLY|Rotation=270.000|XOffset=0mm|YOffset=0mm|HoleType=Round|Shape=RoundedRectangle|*
%AMROUNDEDRECTD35*
21,1,0.3000,0.1500,0,0,270.0*
21,1,0.1500,0.3000,0,0,270.0*
1,1,0.1500,-0.0750,-0.0750*
1,1,0.1500,-0.0750,0.0750*
1,1,0.1500,0.0750,0.0750*
1,1,0.1500,0.0750,-0.0750*
%
%ADD35ROUNDEDRECTD35*%
%ADD36R,0.3000X0.3000*%
G04:AMPARAMS|DCode=37|XSize=2.6mm|YSize=6mm|CornerRadius=0.65mm|HoleSize=0mm|Usage=FLASHONLY|Rotation=90.000|XOffset=0mm|YOffset=0mm|HoleType=Round|Shape=RoundedRectangle|*
%AMROUNDEDRECTD37*
21,1,2.6000,4.7000,0,0,90.0*
21,1,1.3000,6.0000,0,0,90.0*
1,1,1.3000,2.3500,0.6500*
1,1,1.3000,2.3500,-0.6500*
1,1,1.3000,-2.3500,-0.6500*
1,1,1.3000,-2.3500,0.6500*
%
%ADD37ROUNDEDRECTD37*%
%ADD66C,3.2000*%
%ADD74C,0.3810*%
%ADD75C,0.7620*%
%ADD76C,1.1430*%
%ADD77C,0.6858*%
%ADD78R,1.8541X0.5080*%
%ADD79C,1.5000*%
%ADD80R,2.4000X2.4000*%
G04:AMPARAMS|DCode=81|XSize=1.5mm|YSize=3.5mm|CornerRadius=0.375mm|HoleSize=0mm|Usage=FLASHONLY|Rotation=180.000|XOffset=0mm|YOffset=0mm|HoleType=Round|Shape=RoundedRectangle|*
%AMROUNDEDRECTD81*
21,1,1.5000,2.7500,0,0,180.0*
21,1,0.7500,3.5000,0,0,180.0*
1,1,0.7500,-0.3750,1.3750*
1,1,0.7500,0.3750,1.3750*
1,1,0.7500,0.3750,-1.3750*
1,1,0.7500,-0.3750,-1.3750*
%
%ADD81ROUNDEDRECTD81*%
G04:AMPARAMS|DCode=82|XSize=1.5mm|YSize=3.5mm|CornerRadius=0.375mm|HoleSize=0mm|Usage=FLASHONLY|Rotation=270.000|XOffset=0mm|YOffset=0mm|HoleType=Round|Shape=RoundedRectangle|*
%AMROUNDEDRECTD82*
21,1,1.5000,2.7500,0,0,270.0*
21,1,0.7500,3.5000,0,0,270.0*
1,1,0.7500,-1.3750,-0.3750*
1,1,0.7500,-1.3750,0.3750*
1,1,0.7500,1.3750,0.3750*
1,1,0.7500,1.3750,-0.3750*
%
%ADD82ROUNDEDRECTD82*%
G04:AMPARAMS|DCode=83|XSize=1.651mm|YSize=1.651mm|CornerRadius=0.4128mm|HoleSize=0mm|Usage=FLASHONLY|Rotation=0.000|XOffset=0mm|YOffset=0mm|HoleType=Round|Shape=RoundedRectangle|*
%AMROUNDEDRECTD83*
21,1,1.6510,0.8255,0,0,0.0*
21,1,0.8255,1.6510,0,0,0.0*
1,1,0.8255,0.4128,-0.4128*
1,1,0.8255,-0.4128,-0.4128*
1,1,0.8255,-0.4128,0.4128*
1,1,0.8255,0.4128,0.4128*
%
%ADD83ROUNDEDRECTD83*%
%ADD84C,1.6510*%
%ADD85C,0.4000*%
G04:AMPARAMS|DCode=86|XSize=1.651mm|YSize=1.651mm|CornerRadius=0.4128mm|HoleSize=0mm|Usage=FLASHONLY|Rotation=270.000|XOffset=0mm|YOffset=0mm|HoleType=Round|Shape=RoundedRectangle|*
%AMROUNDEDRECTD86*
21,1,1.6510,0.8255,0,0,270.0*
21,1,0.8255,1.6510,0,0,270.0*
1,1,0.8255,-0.4128,-0.4128*
1,1,0.8255,-0.4128,0.4128*
1,1,0.8255,0.4128,0.4128*
1,1,0.8255,0.4128,-0.4128*
%
%ADD86ROUNDEDRECTD86*%
%ADD87C,0.6500*%
%ADD88O,2.1000X1.0500*%
%ADD89O,2.0000X1.0000*%
%ADD90C,2.4000*%
G04:AMPARAMS|DCode=91|XSize=1.5mm|YSize=4mm|CornerRadius=0.375mm|HoleSize=0mm|Usage=FLASHONLY|Rotation=0.000|XOffset=0mm|YOffset=0mm|HoleType=Round|Shape=RoundedRectangle|*
%AMROUNDEDRECTD91*
21,1,1.5000,3.2500,0,0,0.0*
21,1,0.7500,4.0000,0,0,0.0*
1,1,0.7500,0.3750,-1.6250*
1,1,0.7500,-0.3750,-1.6250*
1,1,0.7500,-0.3750,1.6250*
1,1,0.7500,0.3750,1.6250*
%
%ADD91ROUNDEDRECTD91*%
%ADD92C,0.4572*%
G36*
X832020Y962048D02*
X830852Y960879D01*
X830234Y959955D01*
X830017Y958864D01*
X830017Y958864D01*
Y927354D01*
X830017Y927354D01*
X830234Y926264D01*
X830852Y925340D01*
X837891Y918300D01*
Y837072D01*
X827302Y826482D01*
X826715Y826595D01*
X825809Y827144D01*
Y843256D01*
X827694Y844345D01*
X829515Y846166D01*
X830803Y848395D01*
X831469Y850883D01*
Y853457D01*
X830803Y855945D01*
X829515Y858174D01*
X827694Y859995D01*
X825464Y861283D01*
X822977Y861949D01*
X820403D01*
X817915Y861283D01*
X815686Y859995D01*
X813865Y858174D01*
X812577Y855945D01*
X811911Y853457D01*
Y850883D01*
X812577Y848395D01*
X813865Y846166D01*
X815686Y844345D01*
X817915Y843057D01*
X820111Y842469D01*
Y827950D01*
X790370Y798209D01*
X789753Y797285D01*
X789536Y796195D01*
X789536Y796195D01*
Y782969D01*
X777303Y770736D01*
X776685Y769812D01*
X776469Y768721D01*
X776469Y768721D01*
Y766718D01*
X765070Y755319D01*
X746238D01*
Y759963D01*
X745259D01*
X744675Y761371D01*
X746266Y762961D01*
X764540D01*
X764540Y762961D01*
X765630Y763178D01*
X766554Y763796D01*
X775753Y772994D01*
X775753Y772994D01*
X776371Y773919D01*
X776588Y775009D01*
X776588Y775009D01*
Y776668D01*
X783064Y783145D01*
X783064Y783145D01*
X783682Y784070D01*
X783899Y785160D01*
Y788760D01*
X786566Y791427D01*
X786566Y791427D01*
X787183Y792351D01*
X787400Y793441D01*
Y800190D01*
X799574Y812364D01*
X799574Y812364D01*
X800192Y813288D01*
X800409Y814379D01*
X800409Y814379D01*
Y843256D01*
X802294Y844345D01*
X804115Y846166D01*
X805403Y848395D01*
X806069Y850883D01*
Y853457D01*
X805403Y855945D01*
X804115Y858174D01*
X802294Y859995D01*
X800064Y861283D01*
X797577Y861949D01*
X795003D01*
X792515Y861283D01*
X790286Y859995D01*
X788465Y858174D01*
X787177Y855945D01*
X786511Y853457D01*
Y850883D01*
X787177Y848395D01*
X788465Y846166D01*
X790286Y844345D01*
X792515Y843057D01*
X794711Y842469D01*
Y815559D01*
X782537Y803384D01*
X781919Y802460D01*
X781702Y801370D01*
X781702Y801370D01*
Y794621D01*
X779036Y791954D01*
X778418Y791030D01*
X778201Y789940D01*
X778201Y789940D01*
Y786340D01*
X773932Y782070D01*
X772523Y782653D01*
Y807813D01*
X772904Y808194D01*
X773522Y809118D01*
X773739Y810208D01*
X773739Y810209D01*
Y842809D01*
X774665Y843057D01*
X776894Y844345D01*
X778715Y846166D01*
X780003Y848395D01*
X780669Y850883D01*
Y853457D01*
X780003Y855945D01*
X778715Y858174D01*
X776894Y859995D01*
X774665Y861283D01*
X772177Y861949D01*
X769603D01*
X767115Y861283D01*
X764886Y859995D01*
X763065Y858174D01*
X761777Y855945D01*
X761111Y853457D01*
Y850883D01*
X761777Y848395D01*
X763065Y846166D01*
X764886Y844345D01*
X767115Y843057D01*
X768041Y842809D01*
Y811388D01*
X767660Y811008D01*
X767043Y810083D01*
X766826Y808993D01*
X766826Y808993D01*
Y777872D01*
X762693Y773739D01*
X747265D01*
X746451Y775263D01*
X746717Y775661D01*
X756702D01*
X756702Y775661D01*
X757792Y775878D01*
X758717Y776496D01*
X760204Y777983D01*
X760204Y777983D01*
X760822Y778908D01*
X761039Y779998D01*
Y803910D01*
X760822Y805000D01*
X760204Y805924D01*
X760204Y805924D01*
X758707Y807421D01*
X757783Y808039D01*
X756693Y808256D01*
X755904Y809422D01*
Y811255D01*
X755959Y811530D01*
X755959Y811530D01*
Y840566D01*
X758553Y843161D01*
X758553Y843161D01*
X759171Y844085D01*
X759388Y845175D01*
X759388Y845176D01*
Y867119D01*
X766554Y874286D01*
X766554Y874286D01*
X767172Y875210D01*
X767389Y876300D01*
Y918845D01*
X771144D01*
Y931291D01*
X757936D01*
Y918845D01*
X761691D01*
Y877480D01*
X754525Y870313D01*
X753907Y869389D01*
X753690Y868299D01*
X753690Y868299D01*
Y861990D01*
X752346Y861271D01*
X751823Y861621D01*
X749617Y862060D01*
X745164D01*
Y864235D01*
X745164Y864235D01*
X744947Y865325D01*
X744329Y866249D01*
X731774Y878805D01*
Y887222D01*
X718566D01*
Y874776D01*
X727745D01*
X739388Y863134D01*
X739219Y861633D01*
X739157Y861621D01*
X737288Y860372D01*
X736039Y858503D01*
X735600Y856298D01*
Y848043D01*
X735888Y846597D01*
X722309Y833018D01*
X720785Y833649D01*
Y843479D01*
X722284Y844345D01*
X724105Y846166D01*
X725393Y848395D01*
X726059Y850883D01*
Y853457D01*
X725393Y855945D01*
X724105Y858174D01*
X722284Y859995D01*
X720054Y861283D01*
X717567Y861949D01*
X714993D01*
X712505Y861283D01*
X711675Y860803D01*
X707699Y864780D01*
Y874776D01*
X711454D01*
Y887222D01*
X698246D01*
Y874776D01*
X702001D01*
Y863600D01*
X702001Y863600D01*
X702218Y862510D01*
X702836Y861586D01*
X707647Y856775D01*
X707167Y855945D01*
X706501Y853457D01*
Y850883D01*
X707167Y848395D01*
X708455Y846166D01*
X710276Y844345D01*
X712505Y843057D01*
X714993Y842391D01*
X715087D01*
Y833983D01*
X713679Y833400D01*
X699513Y847565D01*
X699993Y848395D01*
X700659Y850883D01*
Y853457D01*
X699993Y855945D01*
X698705Y858174D01*
X696884Y859995D01*
X694654Y861283D01*
X693729Y861531D01*
Y899160D01*
X693729Y899160D01*
X693512Y900250D01*
X692894Y901174D01*
X692894Y901174D01*
X677219Y916850D01*
Y921766D01*
X680974D01*
Y934212D01*
X667766D01*
Y921766D01*
X671521D01*
Y915670D01*
X671521Y915670D01*
X671738Y914580D01*
X672356Y913656D01*
X688031Y897980D01*
Y861531D01*
X687105Y861283D01*
X684876Y859995D01*
X683055Y858174D01*
X681767Y855945D01*
X681101Y853457D01*
Y850883D01*
X681767Y848395D01*
X683055Y846166D01*
X684876Y844345D01*
X687105Y843057D01*
X689593Y842391D01*
X692167D01*
X694654Y843057D01*
X695485Y843537D01*
X710341Y828680D01*
Y770313D01*
X708817Y769681D01*
X668329Y810170D01*
Y842809D01*
X669255Y843057D01*
X671484Y844345D01*
X673305Y846166D01*
X674593Y848395D01*
X675259Y850883D01*
Y853457D01*
X674593Y855945D01*
X673305Y858174D01*
X671484Y859995D01*
X669255Y861283D01*
X666767Y861949D01*
X664193D01*
X661705Y861283D01*
X659476Y859995D01*
X657655Y858174D01*
X656367Y855945D01*
X655701Y853457D01*
Y850883D01*
X656367Y848395D01*
X657655Y846166D01*
X659476Y844345D01*
X661705Y843057D01*
X662631Y842809D01*
Y810403D01*
X661107Y809771D01*
X659439Y811440D01*
Y821070D01*
X659439Y821070D01*
X659222Y822160D01*
X658604Y823084D01*
X658604Y823084D01*
X642929Y838760D01*
Y842809D01*
X643855Y843057D01*
X646084Y844345D01*
X647905Y846166D01*
X649193Y848395D01*
X649859Y850883D01*
Y853457D01*
X649193Y855945D01*
X647905Y858174D01*
X646084Y859995D01*
X643855Y861283D01*
X641367Y861949D01*
X638793D01*
X636306Y861283D01*
X634076Y859995D01*
X632255Y858174D01*
X630967Y855945D01*
X630301Y853457D01*
Y850883D01*
X630967Y848395D01*
X632255Y846166D01*
X634076Y844345D01*
X636306Y843057D01*
X637231Y842809D01*
Y837580D01*
X637231Y837580D01*
X637448Y836490D01*
X638066Y835565D01*
X653741Y819890D01*
Y817949D01*
X652217Y817799D01*
X652037Y818707D01*
X651419Y819631D01*
X651419Y819631D01*
X644402Y826648D01*
X643885Y826993D01*
X624282Y846597D01*
X624570Y848043D01*
Y856298D01*
X624131Y858503D01*
X622882Y860372D01*
X621013Y861621D01*
X618807Y862060D01*
X612546D01*
X611963Y863468D01*
X614327Y865831D01*
X631571D01*
X631571Y865831D01*
X632661Y866048D01*
X633585Y866666D01*
X642966Y876046D01*
X651383D01*
Y889254D01*
X648009D01*
Y893826D01*
X651383D01*
Y907034D01*
X648009D01*
Y910336D01*
X651383D01*
Y923544D01*
X651383D01*
X650621Y924306D01*
Y937514D01*
X647247D01*
Y940816D01*
X650621D01*
Y954024D01*
X643362D01*
X642779Y955432D01*
X645094Y957747D01*
X692910D01*
X693724Y956224D01*
X693475Y955851D01*
X693062Y953770D01*
X693475Y951689D01*
X694065Y950807D01*
X693938Y950227D01*
X693307Y949198D01*
X692641Y949066D01*
X691717Y948448D01*
X691717Y948448D01*
X690108Y946840D01*
X680974D01*
Y950214D01*
X667766D01*
Y937768D01*
X680974D01*
Y941142D01*
X691288D01*
X691288Y941142D01*
X691391Y941058D01*
Y939140D01*
X691704Y937564D01*
X692597Y936227D01*
X692853Y936056D01*
Y934224D01*
X692597Y934053D01*
X691704Y932716D01*
X691391Y931140D01*
Y930910D01*
X708629D01*
Y931140D01*
X708316Y932716D01*
X707423Y934053D01*
X707167Y934224D01*
Y936056D01*
X707423Y936227D01*
X708316Y937564D01*
X708629Y939140D01*
Y939370D01*
X700010D01*
Y941910D01*
X708629D01*
Y942140D01*
X708576Y942407D01*
X709543Y943585D01*
X720036D01*
X722427Y941195D01*
Y939140D01*
X722662Y937960D01*
X723330Y936960D01*
X724330Y936292D01*
X725510Y936057D01*
X734510D01*
X735690Y936292D01*
X736690Y936960D01*
X738329Y936669D01*
X739263Y936046D01*
X741344Y935631D01*
X757936D01*
Y934847D01*
X771144D01*
Y947293D01*
X757936D01*
Y946508D01*
X746477D01*
X746368Y947052D01*
X745190Y948816D01*
X741186Y952820D01*
X739422Y953998D01*
X737341Y954413D01*
X734759D01*
X732832Y956339D01*
X733415Y957747D01*
X738688D01*
X740770Y958161D01*
X742534Y959340D01*
X746765Y963571D01*
X831389D01*
X832020Y962048D01*
D02*
G37*
G36*
X840419Y942748D02*
X840685Y941410D01*
X841443Y940276D01*
X841943Y939776D01*
Y936323D01*
X842209Y934985D01*
X842967Y933850D01*
X879367Y897450D01*
X880502Y896692D01*
X881840Y896426D01*
X884198D01*
X885217Y894902D01*
X885190Y894838D01*
Y893322D01*
X885770Y891922D01*
X886842Y890850D01*
X888242Y890270D01*
X888781D01*
X897146Y881906D01*
X897146Y881906D01*
X898070Y881288D01*
X899160Y881071D01*
X900176D01*
Y877697D01*
X909355D01*
X921714Y865338D01*
X920743Y864154D01*
X920733Y864161D01*
X918528Y864600D01*
X910273D01*
X908067Y864161D01*
X906198Y862912D01*
X904949Y861043D01*
X904510Y858838D01*
Y850583D01*
X904949Y848377D01*
X906198Y846508D01*
X908067Y845259D01*
X910273Y844820D01*
X918528D01*
X919973Y845108D01*
X932281Y832800D01*
Y825634D01*
X929106D01*
Y807586D01*
X941154D01*
Y825634D01*
X937979D01*
Y833980D01*
X937979Y833980D01*
X937762Y835070D01*
X937144Y835994D01*
X924002Y849137D01*
X924290Y850583D01*
Y858838D01*
X923851Y861043D01*
X923844Y861053D01*
X925028Y862024D01*
X930239Y856813D01*
X930021Y855997D01*
Y853423D01*
X930687Y850936D01*
X931975Y848706D01*
X933796Y846885D01*
X936025Y845597D01*
X938513Y844931D01*
X941087D01*
X943575Y845597D01*
X944405Y846077D01*
X947281Y843200D01*
Y825634D01*
X944106D01*
Y807586D01*
X956154D01*
Y825634D01*
X952979D01*
Y844380D01*
X952979Y844380D01*
X952762Y845470D01*
X952144Y846394D01*
X952144Y846394D01*
X948433Y850105D01*
X948913Y850936D01*
X949579Y853423D01*
Y855997D01*
X948913Y858484D01*
X947625Y860714D01*
X945804Y862535D01*
X943575Y863823D01*
X941087Y864489D01*
X938513D01*
X936025Y863823D01*
X933796Y862535D01*
X933185Y861925D01*
X913384Y881726D01*
Y890143D01*
X900176D01*
Y888924D01*
X898768Y888341D01*
X892810Y894299D01*
Y894838D01*
X892784Y894902D01*
X893802Y896426D01*
X900176D01*
Y893699D01*
X913384D01*
Y896426D01*
X925957D01*
X927295Y896692D01*
X928429Y897450D01*
X930518Y899539D01*
X931926Y898955D01*
Y889889D01*
X941105D01*
X962351Y868643D01*
Y864071D01*
X961425Y863823D01*
X959196Y862535D01*
X957375Y860714D01*
X956087Y858484D01*
X955421Y855997D01*
Y853423D01*
X956087Y850936D01*
X957375Y848706D01*
X959196Y846885D01*
X961425Y845597D01*
X962351Y845349D01*
Y825634D01*
X959106D01*
Y807586D01*
X971154D01*
Y825634D01*
X968049D01*
Y845349D01*
X968975Y845597D01*
X971204Y846885D01*
X973025Y848706D01*
X974313Y850936D01*
X974979Y853423D01*
Y855997D01*
X974313Y858484D01*
X973025Y860714D01*
X971204Y862535D01*
X968975Y863823D01*
X968049Y864071D01*
Y869823D01*
X968049Y869823D01*
X967832Y870913D01*
X967214Y871837D01*
X945134Y893918D01*
Y902335D01*
X935306D01*
X934722Y903743D01*
X936870Y905891D01*
X945134D01*
Y908618D01*
X967606D01*
Y906786D01*
X985654D01*
Y918524D01*
X1033910D01*
X1034094Y918340D01*
Y913384D01*
X1031367D01*
Y900176D01*
X1034094D01*
Y875208D01*
X1027244Y868358D01*
X1026486Y867224D01*
X1026220Y865886D01*
Y859615D01*
X1024696Y859206D01*
X1023825Y860714D01*
X1022004Y862535D01*
X1019774Y863823D01*
X1017287Y864489D01*
X1014713D01*
X1012225Y863823D01*
X1009996Y862535D01*
X1009336Y861876D01*
X1007812Y862507D01*
Y868108D01*
X1018410Y878706D01*
X1029514D01*
Y896754D01*
X1025084D01*
Y900176D01*
X1027811D01*
Y913384D01*
X1015365D01*
Y900176D01*
X1018092D01*
Y896754D01*
X1013466D01*
Y883650D01*
X1009938Y880122D01*
X1008530Y880706D01*
Y886460D01*
X1000760D01*
Y877690D01*
X1005514D01*
X1006098Y876282D01*
X1001844Y872028D01*
X1001086Y870894D01*
X1000820Y869556D01*
Y859615D01*
X999296Y859206D01*
X998425Y860714D01*
X996604Y862535D01*
X994374Y863823D01*
X991887Y864489D01*
X989313D01*
X986825Y863823D01*
X984596Y862535D01*
X982775Y860714D01*
X981487Y858484D01*
X980821Y855997D01*
Y853423D01*
X981487Y850936D01*
X981967Y850105D01*
X978116Y846254D01*
X977498Y845330D01*
X977281Y844240D01*
X977281Y844240D01*
Y825634D01*
X974106D01*
Y807586D01*
X986154D01*
Y825634D01*
X982979D01*
Y843060D01*
X985995Y846077D01*
X986825Y845597D01*
X989313Y844931D01*
X991887D01*
X994374Y845597D01*
X996604Y846885D01*
X998425Y848706D01*
X999296Y850214D01*
X1000713Y849894D01*
X1000829Y849822D01*
X1001086Y848532D01*
X1001844Y847398D01*
X1007548Y841694D01*
X1007256Y839934D01*
X1007209Y839877D01*
X1006182Y838850D01*
X1005602Y837450D01*
Y835934D01*
X1006136Y834645D01*
X997125Y825634D01*
X989106D01*
Y807586D01*
X1001154D01*
Y821605D01*
X1002698Y823149D01*
X1004106Y822566D01*
Y807586D01*
X1016154D01*
Y819565D01*
X1016209Y819840D01*
X1016209Y819840D01*
Y827069D01*
X1016888Y827350D01*
X1017960Y828422D01*
X1018166Y828920D01*
X1019699Y829242D01*
X1020865Y828215D01*
Y825634D01*
X1019106D01*
Y807586D01*
X1031154D01*
Y825634D01*
X1027858D01*
Y829825D01*
X1027858Y829825D01*
X1027591Y831163D01*
X1027225Y831712D01*
X1027630Y833276D01*
X1027800Y833486D01*
X1028318Y833700D01*
X1029390Y834772D01*
X1029970Y836172D01*
Y837688D01*
X1029390Y839088D01*
X1029009Y839469D01*
Y843478D01*
X1030533Y844109D01*
X1036634Y838008D01*
Y825634D01*
X1034106D01*
Y807586D01*
X1036634D01*
Y662940D01*
X1036900Y661602D01*
X1037658Y660468D01*
X1042936Y655189D01*
X1043250Y654432D01*
X1044322Y653360D01*
X1045722Y652780D01*
X1047238D01*
X1047956Y653078D01*
X1049480Y652211D01*
Y639110D01*
X1049964Y637944D01*
X1051130Y637460D01*
X1054100D01*
Y436880D01*
X758433D01*
X758159Y437270D01*
X757854Y438404D01*
X767180Y447730D01*
X768333Y447421D01*
X770907D01*
X773394Y448087D01*
X775624Y449375D01*
X777445Y451196D01*
X778733Y453425D01*
X779399Y455913D01*
Y458487D01*
X778733Y460975D01*
X777445Y463204D01*
X775624Y465025D01*
X775059Y465352D01*
Y489839D01*
X774644Y491920D01*
X773466Y493685D01*
X760603Y506547D01*
Y512064D01*
X748157D01*
Y498856D01*
X752912D01*
X764182Y487586D01*
Y465352D01*
X763616Y465025D01*
X761795Y463204D01*
X760507Y460975D01*
X759841Y458487D01*
Y455913D01*
X759871Y455802D01*
X751467Y447398D01*
X749849D01*
X749441Y448923D01*
X750224Y449375D01*
X752045Y451196D01*
X753333Y453425D01*
X753999Y455913D01*
Y458487D01*
X753333Y460975D01*
X752045Y463204D01*
X750224Y465025D01*
X747995Y466313D01*
X747069Y466561D01*
Y495208D01*
X747069Y495208D01*
X746852Y496298D01*
X746234Y497223D01*
X746234Y497223D01*
X744601Y498856D01*
Y512064D01*
X744601D01*
X744256Y512897D01*
X776714Y545356D01*
X776714Y545356D01*
X777332Y546280D01*
X777549Y547370D01*
X777549Y547370D01*
Y594360D01*
X777549Y594360D01*
X777332Y595450D01*
X776714Y596374D01*
X776714Y596374D01*
X736909Y636180D01*
Y638810D01*
X736909Y638810D01*
X736692Y639900D01*
X736074Y640824D01*
X736074Y640824D01*
X733353Y643546D01*
Y647206D01*
X733136Y648297D01*
X732518Y649221D01*
X732518Y649221D01*
X731637Y650102D01*
X731745Y650486D01*
X732384Y651510D01*
X733548D01*
X734948Y652090D01*
X736020Y653162D01*
X736600Y654562D01*
Y656078D01*
X736020Y657478D01*
X736376Y658961D01*
X736920D01*
Y667470D01*
Y675979D01*
X734126D01*
Y674963D01*
X685142D01*
Y664006D01*
X635193Y614057D01*
X633785Y614640D01*
Y618326D01*
X673319Y657860D01*
X673858D01*
X675258Y658440D01*
X676330Y659512D01*
X676910Y660912D01*
Y662428D01*
X676330Y663828D01*
X675258Y664900D01*
X673858Y665480D01*
X672342D01*
X670942Y664900D01*
X669870Y663828D01*
X669290Y662428D01*
Y661889D01*
X628922Y621520D01*
X628304Y620596D01*
X628087Y619506D01*
X628087Y619506D01*
Y524764D01*
X628087Y524764D01*
X628304Y523674D01*
X628922Y522750D01*
X632664Y519007D01*
X632664Y519007D01*
X633588Y518390D01*
X634679Y518173D01*
X634679Y518173D01*
X638220D01*
X640080Y516313D01*
Y516132D01*
X640660Y514732D01*
X641732Y513660D01*
X643132Y513080D01*
X644648D01*
X646048Y513660D01*
X647120Y514732D01*
X647700Y516132D01*
Y517648D01*
X647120Y519048D01*
X646048Y520120D01*
X644648Y520700D01*
X643751D01*
X641415Y523036D01*
X640491Y523653D01*
X639400Y523870D01*
X639400Y523870D01*
X635859D01*
X633785Y525944D01*
Y570505D01*
X635193Y571088D01*
X667276Y539006D01*
X667276Y539006D01*
X668200Y538388D01*
X669290Y538171D01*
X712698D01*
X712698Y538171D01*
X713789Y538388D01*
X714713Y539006D01*
X721498Y545791D01*
X741681D01*
X742062Y545410D01*
X743462Y544830D01*
X744978D01*
X746378Y545410D01*
X747450Y546482D01*
X748030Y547882D01*
Y549398D01*
X747450Y550798D01*
X746378Y551870D01*
X744978Y552450D01*
X743462D01*
X742062Y551870D01*
X741681Y551489D01*
X720318D01*
X720318Y551489D01*
X719228Y551272D01*
X718304Y550654D01*
X711518Y543869D01*
X670470D01*
X637849Y576490D01*
Y608655D01*
X688817Y659623D01*
X690341Y659124D01*
Y647111D01*
X652036Y608806D01*
X651418Y607881D01*
X651201Y606791D01*
X651201Y606791D01*
Y592820D01*
X649922D01*
X647717Y592381D01*
X645848Y591132D01*
X644599Y589263D01*
X644160Y587057D01*
Y578802D01*
X644599Y576597D01*
X645848Y574728D01*
X647717Y573479D01*
X649922Y573040D01*
X658177D01*
X660383Y573479D01*
X662252Y574728D01*
X663501Y576597D01*
X663940Y578802D01*
Y587057D01*
X663501Y589263D01*
X662252Y591132D01*
X660383Y592381D01*
X658177Y592820D01*
X656899D01*
Y605611D01*
X693817Y642530D01*
X695341Y641899D01*
Y635418D01*
X677436Y617512D01*
X676818Y616588D01*
X676601Y615498D01*
X676601Y615498D01*
Y592291D01*
X675676Y592043D01*
X673446Y590755D01*
X671625Y588934D01*
X670337Y586704D01*
X669671Y584217D01*
Y581643D01*
X670337Y579156D01*
X671625Y576926D01*
X673446Y575105D01*
X675676Y573817D01*
X678163Y573151D01*
X680737D01*
X683224Y573817D01*
X685454Y575105D01*
X687275Y576926D01*
X688563Y579156D01*
X689229Y581643D01*
Y584217D01*
X688563Y586704D01*
X687275Y588934D01*
X685454Y590755D01*
X683224Y592043D01*
X682299Y592291D01*
Y614318D01*
X698307Y630326D01*
X699715Y629743D01*
Y614442D01*
X699715Y614442D01*
X699932Y613352D01*
X700341Y612739D01*
Y591619D01*
X698846Y590755D01*
X697025Y588934D01*
X695737Y586704D01*
X695071Y584217D01*
Y581643D01*
X695737Y579156D01*
X697025Y576926D01*
X698846Y575105D01*
X701076Y573817D01*
X703563Y573151D01*
X706137D01*
X708624Y573817D01*
X710854Y575105D01*
X712675Y576926D01*
X713963Y579156D01*
X714629Y581643D01*
Y584217D01*
X713963Y586704D01*
X715211Y587590D01*
X719213Y583589D01*
X719213Y583589D01*
X720137Y582971D01*
X720471Y582905D01*
Y581643D01*
X721137Y579156D01*
X722425Y576926D01*
X724246Y575105D01*
X726476Y573817D01*
X728963Y573151D01*
X731537D01*
X734025Y573817D01*
X736254Y575105D01*
X738075Y576926D01*
X739363Y579156D01*
X740029Y581643D01*
Y584217D01*
X739363Y586704D01*
X738075Y588934D01*
X736254Y590755D01*
X734025Y592043D01*
X731537Y592709D01*
X728963D01*
X726476Y592043D01*
X724246Y590755D01*
X723252Y589762D01*
X721201Y589658D01*
X717061Y593797D01*
X717693Y595321D01*
X740645D01*
X747535Y588432D01*
X746537Y586704D01*
X745871Y584217D01*
Y581643D01*
X746537Y579156D01*
X747825Y576926D01*
X749646Y575105D01*
X751876Y573817D01*
X754363Y573151D01*
X756937D01*
X759425Y573817D01*
X761654Y575105D01*
X762326Y575777D01*
X763850Y575145D01*
Y555789D01*
X725315Y517253D01*
X724697Y516329D01*
X724480Y515239D01*
X724480Y515239D01*
Y512064D01*
X712597D01*
Y498856D01*
X715971D01*
Y466561D01*
X715045Y466313D01*
X712816Y465025D01*
X710995Y463204D01*
X709707Y460975D01*
X709041Y458487D01*
Y455913D01*
X709707Y453425D01*
X710995Y451196D01*
X712816Y449375D01*
X713599Y448923D01*
X713191Y447398D01*
X705216D01*
X703939Y448676D01*
Y498508D01*
X704286Y498856D01*
X709041D01*
Y512064D01*
X696595D01*
Y508358D01*
X539092D01*
Y545388D01*
X538679Y547470D01*
X537500Y549234D01*
X534375Y552359D01*
X532611Y553537D01*
X532169Y553625D01*
X529844Y555950D01*
Y560705D01*
X526851D01*
X525816Y562254D01*
X515215Y572855D01*
X515262Y573210D01*
Y586210D01*
X514986Y588305D01*
X514177Y590257D01*
X512891Y591933D01*
X511215Y593219D01*
X509263Y594027D01*
X507168Y594303D01*
X464677D01*
Y604140D01*
X464263Y606221D01*
X464035Y606562D01*
Y607441D01*
X463931Y607966D01*
Y614934D01*
X459176D01*
X425740Y648371D01*
X423975Y649549D01*
X421894Y649964D01*
X416603D01*
X406954Y659613D01*
X435196Y687855D01*
X571500D01*
X573581Y688269D01*
X575346Y689447D01*
X576525Y691212D01*
X576939Y693293D01*
X576525Y695374D01*
X576304Y695704D01*
X577022Y697048D01*
X586711D01*
X586861Y695524D01*
X585487Y695251D01*
X583618Y694002D01*
X582369Y692133D01*
X581930Y689928D01*
Y681673D01*
X582369Y679467D01*
X583618Y677598D01*
X585487Y676349D01*
X587692Y675910D01*
X595947D01*
X598153Y676349D01*
X600022Y677598D01*
X601271Y679467D01*
X601710Y681673D01*
Y689928D01*
X601593Y690516D01*
X602767Y691895D01*
X634275D01*
X634275Y691895D01*
X635365Y692112D01*
X636289Y692729D01*
X643181Y699621D01*
X646675D01*
X647306Y698097D01*
X612458Y663249D01*
X601181D01*
X600933Y664174D01*
X599645Y666404D01*
X597824Y668225D01*
X595594Y669513D01*
X593107Y670179D01*
X590533D01*
X588046Y669513D01*
X585816Y668225D01*
X583995Y666404D01*
X582707Y664174D01*
X582041Y661687D01*
Y659113D01*
X582707Y656626D01*
X583995Y654396D01*
X585816Y652575D01*
X588046Y651287D01*
X590533Y650621D01*
X593107D01*
X595594Y651287D01*
X597824Y652575D01*
X599645Y654396D01*
X600933Y656626D01*
X601181Y657551D01*
X613638D01*
X613638Y657551D01*
X614728Y657768D01*
X615652Y658386D01*
X651888Y694621D01*
X665697D01*
Y690319D01*
X658408D01*
X658408Y690319D01*
X657318Y690102D01*
X656393Y689484D01*
X656393Y689484D01*
X604758Y637849D01*
X601181D01*
X600933Y638774D01*
X599645Y641004D01*
X597824Y642825D01*
X595594Y644113D01*
X593107Y644779D01*
X590533D01*
X588046Y644113D01*
X585816Y642825D01*
X583995Y641004D01*
X582707Y638774D01*
X582041Y636287D01*
Y633713D01*
X582707Y631226D01*
X583995Y628996D01*
X585816Y627175D01*
X588046Y625887D01*
X590533Y625221D01*
X593107D01*
X595594Y625887D01*
X597824Y627175D01*
X599645Y628996D01*
X600933Y631226D01*
X601181Y632151D01*
X605938D01*
X605938Y632151D01*
X607028Y632368D01*
X607952Y632986D01*
X659249Y684283D01*
X660197Y684161D01*
X660776Y682584D01*
X596425Y618233D01*
X595594Y618713D01*
X593107Y619379D01*
X590533D01*
X588046Y618713D01*
X585816Y617425D01*
X583995Y615604D01*
X582707Y613374D01*
X582041Y610887D01*
Y608313D01*
X582707Y605826D01*
X583995Y603596D01*
X585816Y601775D01*
X588046Y600487D01*
X590533Y599821D01*
X593107D01*
X595594Y600487D01*
X597824Y601775D01*
X599645Y603596D01*
X600933Y605826D01*
X601599Y608313D01*
Y610887D01*
X600933Y613374D01*
X600453Y614205D01*
X664673Y678425D01*
X665697Y679422D01*
Y679422D01*
X665697Y679422D01*
X680683D01*
Y689621D01*
X729755D01*
X738485Y680891D01*
Y680352D01*
X739065Y678951D01*
X740137Y677880D01*
X741046Y677503D01*
X740743Y675979D01*
X739460D01*
Y667470D01*
Y658961D01*
X740341D01*
Y643650D01*
X740341Y643650D01*
X740558Y642560D01*
X741176Y641636D01*
X748991Y633820D01*
Y631618D01*
X748991Y631618D01*
X749208Y630527D01*
X749826Y629603D01*
X832811Y546618D01*
Y466561D01*
X831886Y466313D01*
X829656Y465025D01*
X827835Y463204D01*
X826547Y460975D01*
X825881Y458487D01*
Y457537D01*
X824357Y456906D01*
X768659Y512604D01*
Y512784D01*
X771245Y515371D01*
X771246Y515371D01*
X771863Y516295D01*
X772080Y517386D01*
X772080Y517386D01*
Y520312D01*
X772850Y521082D01*
X773430Y522482D01*
Y523998D01*
X772850Y525398D01*
X771778Y526470D01*
X770378Y527050D01*
X768862D01*
X767462Y526470D01*
X766390Y525398D01*
X765810Y523998D01*
Y522482D01*
X766383Y521100D01*
Y518566D01*
X763796Y515979D01*
X763178Y515055D01*
X762961Y513964D01*
X762961Y513964D01*
Y511424D01*
X762961Y511424D01*
X763178Y510334D01*
X763796Y509410D01*
X829069Y444137D01*
X829069Y444137D01*
X829993Y443519D01*
X831083Y443302D01*
X840237D01*
X840237Y443302D01*
X841327Y443519D01*
X842251Y444137D01*
X842306Y444191D01*
X850900D01*
X850900Y444191D01*
X851990Y444408D01*
X852914Y445026D01*
X856455Y448567D01*
X857286Y448087D01*
X859773Y447421D01*
X862347D01*
X864835Y448087D01*
X867064Y449375D01*
X868885Y451196D01*
X870173Y453425D01*
X870839Y455913D01*
Y458487D01*
X870173Y460975D01*
X868885Y463204D01*
X867064Y465025D01*
X864835Y466313D01*
X862347Y466979D01*
X859773D01*
X857286Y466313D01*
X855056Y465025D01*
X853235Y463204D01*
X851947Y460975D01*
X851281Y458487D01*
Y455913D01*
X851947Y453425D01*
X852427Y452595D01*
X849720Y449889D01*
X844095D01*
X843611Y451413D01*
X844773Y453425D01*
X845439Y455913D01*
Y458487D01*
X844773Y460975D01*
X843485Y463204D01*
X841664Y465025D01*
X839435Y466313D01*
X838509Y466561D01*
Y547798D01*
X838509Y547798D01*
X838292Y548888D01*
X837674Y549812D01*
X837674Y549812D01*
X754689Y632798D01*
Y635000D01*
X754689Y635000D01*
X754472Y636090D01*
X753854Y637014D01*
X753854Y637014D01*
X746039Y644830D01*
Y657552D01*
X746509Y657801D01*
X747563Y658019D01*
X748412Y657170D01*
X749812Y656590D01*
X751328D01*
X751535Y656676D01*
X909011Y499200D01*
Y466561D01*
X908085Y466313D01*
X905856Y465025D01*
X904035Y463204D01*
X902747Y460975D01*
X902081Y458487D01*
Y455913D01*
X902747Y453425D01*
X904035Y451196D01*
X905856Y449375D01*
X908085Y448087D01*
X910573Y447421D01*
X913147D01*
X915635Y448087D01*
X917864Y449375D01*
X919685Y451196D01*
X920973Y453425D01*
X921639Y455913D01*
Y458487D01*
X920973Y460975D01*
X919685Y463204D01*
X917864Y465025D01*
X915635Y466313D01*
X914709Y466561D01*
Y500380D01*
X914492Y501470D01*
X913874Y502394D01*
X913874Y502394D01*
X753863Y662406D01*
X753800Y662558D01*
X752728Y663630D01*
X751328Y664210D01*
X749812D01*
X748412Y663630D01*
X747762Y662980D01*
X746238Y663577D01*
Y670934D01*
X748568Y673264D01*
X749547D01*
X749547Y673264D01*
X750637Y673481D01*
X751561Y674099D01*
X755505Y678043D01*
X755505Y678043D01*
X756123Y678967D01*
X756213Y679422D01*
X765683D01*
Y680401D01*
X767091Y680985D01*
X776931Y671144D01*
Y659130D01*
X776931Y659130D01*
X777148Y658040D01*
X777766Y657116D01*
X797251Y637630D01*
Y627380D01*
X797251Y627380D01*
X797468Y626290D01*
X798086Y625366D01*
X803524Y619927D01*
X803524Y619927D01*
X804449Y619309D01*
X805539Y619092D01*
X805561D01*
Y618473D01*
X806227Y615985D01*
X807515Y613756D01*
X809336Y611935D01*
X811565Y610647D01*
X814053Y609981D01*
X816627D01*
X819115Y610647D01*
X821344Y611935D01*
X823165Y613756D01*
X824453Y615985D01*
X825119Y618473D01*
Y621047D01*
X824453Y623535D01*
X823165Y625764D01*
X821344Y627585D01*
X819115Y628873D01*
X816627Y629539D01*
X814053D01*
X811565Y628873D01*
X809336Y627585D01*
X807707Y625957D01*
X807221Y625763D01*
X805751Y625758D01*
X802949Y628560D01*
Y638810D01*
X802949Y638810D01*
X802732Y639900D01*
X802114Y640824D01*
X802114Y640824D01*
X782629Y660310D01*
Y671687D01*
X784153Y672318D01*
X806707Y649765D01*
X806227Y648934D01*
X805561Y646447D01*
Y643873D01*
X806227Y641385D01*
X807515Y639156D01*
X809336Y637335D01*
X811565Y636047D01*
X814053Y635381D01*
X816627D01*
X819115Y636047D01*
X821344Y637335D01*
X823165Y639156D01*
X824453Y641385D01*
X825119Y643873D01*
Y646447D01*
X824453Y648934D01*
X823165Y651164D01*
X821344Y652985D01*
X819115Y654273D01*
X816627Y654939D01*
X814053D01*
X811565Y654273D01*
X810735Y653793D01*
X772511Y692017D01*
X773013Y693671D01*
X773346Y693737D01*
X798538Y668546D01*
X798538Y668546D01*
X799462Y667928D01*
X800552Y667711D01*
X800553Y667711D01*
X805979D01*
X806227Y666786D01*
X807515Y664556D01*
X809336Y662735D01*
X811565Y661447D01*
X814053Y660781D01*
X816627D01*
X819115Y661447D01*
X821344Y662735D01*
X823165Y664556D01*
X824453Y666786D01*
X825119Y669273D01*
Y671847D01*
X824453Y674334D01*
X823165Y676564D01*
X821344Y678385D01*
X819115Y679673D01*
X816627Y680339D01*
X814053D01*
X811565Y679673D01*
X809336Y678385D01*
X807515Y676564D01*
X806227Y674334D01*
X805979Y673409D01*
X801732D01*
X777088Y698053D01*
X777671Y699461D01*
X779344D01*
X779344Y699461D01*
X780149Y699621D01*
X782662D01*
X788338Y693946D01*
X788338Y693946D01*
X789262Y693328D01*
X790352Y693111D01*
X790352Y693111D01*
X805979D01*
X806227Y692186D01*
X807515Y689956D01*
X809336Y688135D01*
X811565Y686847D01*
X814053Y686181D01*
X816627D01*
X819115Y686847D01*
X821344Y688135D01*
X823165Y689956D01*
X824453Y692186D01*
X825119Y694673D01*
Y697247D01*
X824453Y699734D01*
X823165Y701964D01*
X821344Y703785D01*
X819115Y705073D01*
X816627Y705739D01*
X814053D01*
X811565Y705073D01*
X809336Y703785D01*
X807515Y701964D01*
X806227Y699734D01*
X805979Y698809D01*
X791532D01*
X785857Y704484D01*
X784932Y705102D01*
X783842Y705319D01*
X783842Y705319D01*
X781878D01*
X781031Y706586D01*
X781050Y706632D01*
Y708148D01*
X782089Y709621D01*
X805006D01*
X806331Y708297D01*
X806331Y708297D01*
X807255Y707679D01*
X808345Y707462D01*
X808346Y707462D01*
X822669D01*
X827731Y702400D01*
Y607060D01*
X827731Y607060D01*
X827948Y605970D01*
X828566Y605046D01*
X931871Y501740D01*
Y466839D01*
X930927Y466651D01*
X929058Y465402D01*
X927809Y463533D01*
X927370Y461328D01*
Y453073D01*
X927809Y450867D01*
X929058Y448998D01*
X930927Y447749D01*
X933132Y447310D01*
X941387D01*
X943593Y447749D01*
X945462Y448998D01*
X946711Y450867D01*
X947150Y453073D01*
Y461328D01*
X946711Y463533D01*
X945462Y465402D01*
X943593Y466651D01*
X941387Y467090D01*
X937569D01*
Y502920D01*
X937569Y502920D01*
X937352Y504010D01*
X936734Y504934D01*
X936734Y504934D01*
X833429Y608240D01*
Y703580D01*
X833429Y703580D01*
X833212Y704670D01*
X832594Y705594D01*
X832594Y705594D01*
X825863Y712325D01*
X824939Y712943D01*
X824495Y714585D01*
X824791Y715027D01*
X825230Y717233D01*
Y725488D01*
X824791Y727693D01*
X823542Y729562D01*
X821673Y730811D01*
X819467Y731250D01*
X811212D01*
X809007Y730811D01*
X807138Y729562D01*
X805889Y727693D01*
X805450Y725488D01*
Y720788D01*
X779380D01*
X777998Y721360D01*
X776482D01*
X775082Y720780D01*
X774010Y719708D01*
X773430Y718308D01*
Y716792D01*
X772391Y715319D01*
X766699D01*
Y716200D01*
X758190D01*
Y718740D01*
X766699D01*
Y721534D01*
X765683D01*
Y729621D01*
X798510D01*
X798510Y729621D01*
X799600Y729838D01*
X800524Y730456D01*
X810735Y740667D01*
X811565Y740187D01*
X814053Y739521D01*
X816627D01*
X819115Y740187D01*
X821344Y741475D01*
X823165Y743296D01*
X824453Y745526D01*
X825119Y748013D01*
Y750587D01*
X824453Y753074D01*
X823165Y755304D01*
X821344Y757125D01*
X819115Y758413D01*
X816627Y759079D01*
X814053D01*
X811565Y758413D01*
X809336Y757125D01*
X807515Y755304D01*
X806227Y753074D01*
X805561Y750587D01*
Y748013D01*
X806227Y745526D01*
X806707Y744695D01*
X797330Y735319D01*
X782143D01*
X781512Y736843D01*
X809767Y765098D01*
X811212Y764810D01*
X819467D01*
X821673Y765249D01*
X823542Y766498D01*
X824117Y767359D01*
X826067Y767564D01*
X843569Y750062D01*
Y733848D01*
X843569Y733848D01*
X843786Y732757D01*
X844404Y731833D01*
X924195Y652042D01*
X923612Y650634D01*
X914106D01*
Y632586D01*
X922125D01*
X926791Y627920D01*
Y616950D01*
X925512D01*
X923307Y616511D01*
X921438Y615262D01*
X920189Y613393D01*
X919750Y611188D01*
Y602933D01*
X920189Y600727D01*
X921438Y598858D01*
X923307Y597609D01*
X925512Y597170D01*
X933767D01*
X935973Y597609D01*
X937842Y598858D01*
X939091Y600727D01*
X939530Y602933D01*
Y611188D01*
X939091Y613393D01*
X937842Y615262D01*
X935973Y616511D01*
X933767Y616950D01*
X932489D01*
Y629100D01*
X932272Y630190D01*
X931689Y631062D01*
X931820Y631731D01*
X932174Y632586D01*
X941154D01*
Y650634D01*
X933660D01*
X849267Y735027D01*
Y751242D01*
X849050Y752332D01*
X848432Y753256D01*
X848432Y753256D01*
X827932Y773757D01*
X827007Y774375D01*
X825917Y774592D01*
X825230Y775826D01*
Y778828D01*
X824791Y781033D01*
X823542Y782902D01*
X821673Y784151D01*
X819467Y784590D01*
X811212D01*
X809007Y784151D01*
X807138Y782902D01*
X805889Y781033D01*
X805450Y778828D01*
Y770573D01*
X805738Y769127D01*
X776930Y740319D01*
X765683D01*
Y740518D01*
X755814D01*
X755230Y741926D01*
X758862Y745557D01*
X769996D01*
X769996Y745557D01*
X771086Y745774D01*
X772010Y746392D01*
X785396Y759777D01*
X785396Y759777D01*
X786013Y760701D01*
X786230Y761791D01*
X786230Y761791D01*
Y764421D01*
X795239Y773430D01*
X795778D01*
X797178Y774010D01*
X798250Y775082D01*
X798830Y776482D01*
Y777998D01*
X798250Y779398D01*
X797178Y780470D01*
X796871Y782247D01*
X804256Y789631D01*
X820510D01*
X881768Y728373D01*
Y718123D01*
X881768Y718123D01*
X881985Y717033D01*
X882603Y716108D01*
X946553Y652158D01*
X945922Y650634D01*
X944106D01*
Y632586D01*
X956154D01*
Y650634D01*
X952979D01*
Y652610D01*
X952979Y652610D01*
X952762Y653700D01*
X952144Y654624D01*
X952144Y654624D01*
X887466Y719303D01*
Y729553D01*
X887466Y729553D01*
X887249Y730643D01*
X886632Y731567D01*
X886631Y731567D01*
X823704Y794494D01*
X822780Y795112D01*
X821690Y795329D01*
X821690Y795329D01*
X804924D01*
X804293Y796853D01*
X816023Y808583D01*
X816280D01*
X816280Y808583D01*
X817370Y808800D01*
X818295Y809417D01*
X842754Y833877D01*
X842754Y833877D01*
X843372Y834801D01*
X843589Y835891D01*
X843589Y835892D01*
Y919480D01*
X843372Y920570D01*
X842754Y921494D01*
X842754Y921494D01*
X835715Y928534D01*
Y946785D01*
X840419D01*
Y942748D01*
D02*
G37*
G36*
X741363Y842280D02*
X748813D01*
X749778Y841925D01*
X750261Y840854D01*
Y814324D01*
X742696D01*
Y801878D01*
X755341D01*
Y799338D01*
X750570D01*
Y792099D01*
Y784860D01*
X755341D01*
Y781359D01*
X744451D01*
X743361Y781142D01*
X742437Y780524D01*
X742437Y780524D01*
X727563Y765650D01*
X726039Y766282D01*
Y828690D01*
X739917Y842568D01*
X741363Y842280D01*
D02*
G37*
G36*
X608347Y842719D02*
X610552Y842280D01*
X618807D01*
X620253Y842568D01*
X640202Y822620D01*
X640202Y822620D01*
X640718Y822275D01*
X646556Y816436D01*
Y811698D01*
X646556Y811698D01*
X646773Y810608D01*
X647391Y809683D01*
X694571Y762503D01*
X694460Y762235D01*
Y752470D01*
X691920D01*
Y760979D01*
X689126D01*
Y760979D01*
X687646Y761085D01*
X646836Y801894D01*
X645912Y802511D01*
X644822Y802728D01*
X644024Y803888D01*
Y811074D01*
X625976D01*
Y809019D01*
X622609D01*
Y820900D01*
X622609Y820900D01*
X622392Y821990D01*
X621774Y822914D01*
X621774Y822915D01*
X606480Y838209D01*
Y842350D01*
X607824Y843069D01*
X608347Y842719D01*
D02*
G37*
G36*
X753460Y748213D02*
X747413Y742166D01*
X746795Y741242D01*
X746578Y740151D01*
X746578Y740151D01*
Y729789D01*
X746578Y729789D01*
X746795Y728699D01*
X747413Y727774D01*
X748344Y726843D01*
X747713Y725319D01*
X712926D01*
X695691Y742553D01*
X696275Y743961D01*
X697254D01*
Y744977D01*
X746238D01*
Y749621D01*
X752877D01*
X753460Y748213D01*
D02*
G37*
G36*
X430481Y715710D02*
Y701385D01*
X430481Y701385D01*
X430698Y700295D01*
X430967Y699892D01*
X430888Y698704D01*
X430473Y698058D01*
X429097Y697139D01*
X413777Y681818D01*
X412369Y682401D01*
Y685800D01*
X406400D01*
Y679450D01*
X409418D01*
X410001Y678042D01*
X399263Y667304D01*
X387509Y679058D01*
X388092Y680466D01*
X395351D01*
Y686178D01*
X395445Y686362D01*
X396412Y686611D01*
X397891Y685491D01*
Y679450D01*
X403860D01*
Y687070D01*
X405130D01*
Y688340D01*
X412369D01*
Y694690D01*
X411319D01*
X410736Y696098D01*
X417114Y702476D01*
X417114Y702476D01*
X417732Y703400D01*
X417949Y704491D01*
X417949Y704491D01*
Y710202D01*
X419473Y711243D01*
X419580Y711221D01*
X421080D01*
X421967Y711398D01*
X422830Y711843D01*
X423693Y711398D01*
X424580Y711221D01*
X426080D01*
X426967Y711398D01*
X427719Y711901D01*
X428222Y712653D01*
X428399Y713540D01*
Y716773D01*
X429190Y716901D01*
X430481Y715710D01*
D02*
G37*
G36*
X396261Y726040D02*
Y724540D01*
X396438Y723653D01*
X396941Y722901D01*
X397693Y722398D01*
X398580Y722222D01*
X400943D01*
X402262Y721040D01*
Y719540D01*
X402438Y718653D01*
X402940Y717900D01*
X403693Y717398D01*
X404580Y717222D01*
X406080D01*
X406226Y717102D01*
Y713540D01*
X406481Y712256D01*
X407208Y711168D01*
X408296Y710441D01*
X409060Y710289D01*
Y717290D01*
X411600D01*
Y709759D01*
X412251Y709224D01*
Y705670D01*
X405644Y699063D01*
X400544D01*
X400544Y699063D01*
X399454Y698846D01*
X398529Y698228D01*
X398529Y698228D01*
X395620Y695319D01*
X395003Y694395D01*
X394859Y693674D01*
X382905D01*
Y689919D01*
X375100D01*
X375099Y689919D01*
X374009Y689702D01*
X373954Y689665D01*
X370266D01*
X370211Y689702D01*
X369120Y689919D01*
X369120Y689919D01*
X362100D01*
X348576Y703442D01*
X349160Y704850D01*
X351790D01*
Y712470D01*
X353060D01*
Y713740D01*
X360299D01*
Y716522D01*
X361785Y717704D01*
X362740Y717502D01*
X362784Y717427D01*
Y714248D01*
X362784Y714248D01*
X362839Y713973D01*
Y705866D01*
X374710D01*
X375380Y704381D01*
X372074Y701076D01*
X370896Y699311D01*
X370481Y697230D01*
X370896Y695149D01*
X372074Y693384D01*
X373839Y692206D01*
X375920Y691792D01*
X378001Y692206D01*
X379766Y693384D01*
X387386Y701004D01*
X388564Y702769D01*
X388979Y704850D01*
Y707128D01*
X390387Y707711D01*
X390743Y707354D01*
X392508Y706176D01*
X394589Y705761D01*
X397510D01*
X399591Y706176D01*
X401356Y707354D01*
X402534Y709119D01*
X402948Y711200D01*
X402534Y713281D01*
X401356Y715046D01*
X399591Y716225D01*
X397510Y716638D01*
X396842D01*
X391414Y722066D01*
Y726331D01*
X392137Y726475D01*
X393062Y727093D01*
X393410Y727441D01*
X395088D01*
X396261Y726040D01*
D02*
G37*
G36*
X1017270Y1055370D02*
X1054100Y1018540D01*
Y820760D01*
X1051130D01*
X1049964Y820276D01*
X1049480Y819110D01*
Y660969D01*
X1047956Y660102D01*
X1047881Y660134D01*
X1043626Y664388D01*
Y807586D01*
X1046154D01*
Y825468D01*
X1046642Y826226D01*
X1047091Y826770D01*
X1048508D01*
X1049908Y827350D01*
X1050980Y828422D01*
X1051560Y829822D01*
Y831338D01*
X1050980Y832738D01*
X1050599Y833119D01*
Y838482D01*
X1050382Y839572D01*
X1049764Y840496D01*
X1049764Y840496D01*
X1046435Y843825D01*
Y846325D01*
X1047404Y846885D01*
X1049225Y848706D01*
X1050513Y850936D01*
X1051179Y853423D01*
Y855997D01*
X1050513Y858484D01*
X1049225Y860714D01*
X1047404Y862535D01*
X1045174Y863823D01*
X1042687Y864489D01*
X1040113D01*
X1037626Y863823D01*
X1035396Y862535D01*
X1034736Y861876D01*
X1033212Y862507D01*
Y864438D01*
X1040062Y871288D01*
X1040820Y872422D01*
X1041086Y873760D01*
Y900176D01*
X1043813D01*
Y913384D01*
X1041086D01*
Y919788D01*
X1040820Y921126D01*
X1040062Y922260D01*
X1037830Y924492D01*
X1036696Y925250D01*
X1035358Y925516D01*
X995272D01*
X994688Y926924D01*
X1007677Y939913D01*
X1008435Y941047D01*
X1008701Y942385D01*
X1009122Y943737D01*
X1014984D01*
Y956183D01*
X1001776D01*
Y947504D01*
X1001709Y947166D01*
Y943833D01*
X983280Y925405D01*
X982502Y925250D01*
X981368Y924492D01*
X979710Y922834D01*
X967606D01*
Y915610D01*
X945134D01*
Y918337D01*
X931926D01*
Y910835D01*
X924509Y903418D01*
X913384D01*
Y906145D01*
X900176D01*
Y903418D01*
X896682D01*
X896051Y904942D01*
X903516Y912407D01*
X903790Y912352D01*
X909290D01*
X910958Y912684D01*
X912371Y913629D01*
X913316Y915042D01*
X913648Y916710D01*
Y924710D01*
X913316Y926378D01*
X912371Y927791D01*
X910958Y928736D01*
X909389Y929048D01*
Y970872D01*
X910958Y971184D01*
X912371Y972129D01*
X913316Y973542D01*
X913648Y975210D01*
Y983210D01*
X913316Y984878D01*
X912371Y986291D01*
X910958Y987236D01*
X909290Y987568D01*
X903790D01*
X902122Y987236D01*
X900709Y986291D01*
X899764Y984878D01*
X899432Y983210D01*
Y975210D01*
X899764Y973542D01*
X900709Y972129D01*
X902122Y971184D01*
X903691Y970872D01*
Y929048D01*
X902122Y928736D01*
X900709Y927791D01*
X899764Y926378D01*
X899432Y924710D01*
Y916710D01*
X899487Y916436D01*
X891926Y908875D01*
X891140D01*
X889758Y909447D01*
X888242D01*
X886842Y908867D01*
X885770Y907795D01*
X885190Y906395D01*
Y904879D01*
X884567Y904008D01*
X882811Y903895D01*
X876798Y909908D01*
X877381Y911316D01*
X879290D01*
X881354Y911727D01*
X883104Y912896D01*
X884273Y914646D01*
X884684Y916710D01*
Y919440D01*
X876540D01*
Y920710D01*
X875270D01*
Y930104D01*
X873790D01*
X871726Y929693D01*
X869976Y928524D01*
X868807Y926774D01*
X868396Y924710D01*
Y920301D01*
X866988Y919718D01*
X848935Y937771D01*
Y941224D01*
X848935Y941224D01*
X848669Y942562D01*
X847911Y943696D01*
X847411Y944196D01*
Y950214D01*
X847344Y950552D01*
Y958334D01*
X847559Y958377D01*
X848484Y958995D01*
X850628Y961139D01*
X850628Y961139D01*
X851246Y962064D01*
X851463Y963154D01*
Y995671D01*
X851246Y996761D01*
X850628Y997686D01*
X850628Y997686D01*
X835169Y1013145D01*
Y1037052D01*
X837540Y1037688D01*
X840624Y1039468D01*
X843142Y1041986D01*
X844922Y1045070D01*
X845844Y1048510D01*
Y1052070D01*
X844922Y1055510D01*
X843142Y1058594D01*
X840624Y1061112D01*
X837540Y1062892D01*
X834100Y1063814D01*
X830539D01*
X827100Y1062892D01*
X824016Y1061112D01*
X821498Y1058594D01*
X819718Y1055510D01*
X818796Y1052070D01*
Y1048510D01*
X819718Y1045070D01*
X821498Y1041986D01*
X824016Y1039468D01*
X827100Y1037688D01*
X829471Y1037052D01*
Y1011965D01*
X829471Y1011965D01*
X829688Y1010875D01*
X830306Y1009951D01*
X845765Y994491D01*
Y975233D01*
X834136D01*
Y974448D01*
X744512D01*
X742431Y974035D01*
X740667Y972856D01*
X736436Y968624D01*
X722313D01*
X722301Y968636D01*
X721637Y970148D01*
X722196Y970984D01*
X722509Y972560D01*
Y977290D01*
X716890D01*
X711271D01*
Y972560D01*
X711584Y970984D01*
X712142Y970148D01*
X711479Y968636D01*
X711467Y968624D01*
X701686D01*
X701224Y970148D01*
X701570Y970380D01*
X702238Y971380D01*
X702473Y972560D01*
Y972938D01*
X702915Y973599D01*
X703328Y975680D01*
Y978560D01*
X702915Y980641D01*
X702473Y981302D01*
Y984560D01*
X702238Y985740D01*
X701570Y986740D01*
X700570Y987409D01*
X699390Y987643D01*
X696390D01*
X695210Y987409D01*
X694210Y986740D01*
X693541Y985740D01*
X693307Y984560D01*
Y981302D01*
X692866Y980641D01*
X692742Y980018D01*
X692119Y979894D01*
X690354Y978716D01*
X689739Y978101D01*
X676336D01*
X674255Y977687D01*
X672491Y976508D01*
X671312Y974743D01*
X670898Y972662D01*
X671312Y970581D01*
X671600Y970148D01*
X670786Y968624D01*
X642842D01*
X640760Y968211D01*
X638996Y967032D01*
X630519Y958555D01*
X629341Y956791D01*
X629253Y956349D01*
X626928Y954024D01*
X622173D01*
Y951311D01*
X621489Y951174D01*
X619724Y949996D01*
X567654Y897926D01*
X566475Y896161D01*
X566062Y894080D01*
Y725170D01*
X566475Y723089D01*
X567654Y721324D01*
X569419Y720145D01*
X571500Y719732D01*
X573581Y720145D01*
X575346Y721324D01*
X576525Y723089D01*
X576939Y725170D01*
Y891827D01*
X619749Y934638D01*
X621157Y934055D01*
Y932180D01*
X627126D01*
Y938530D01*
X626504D01*
X625757Y940054D01*
X626267Y940712D01*
X627507D01*
X628032Y940816D01*
X634619D01*
Y946333D01*
X636767Y948481D01*
X638175Y947898D01*
Y940816D01*
X641549D01*
Y937514D01*
X638175D01*
Y924306D01*
X638175D01*
X638937Y923544D01*
Y910336D01*
X642311D01*
Y907034D01*
X638937D01*
Y893826D01*
X642311D01*
Y889254D01*
X638937D01*
Y880075D01*
X637805Y878943D01*
X636397Y879526D01*
Y881380D01*
X630428D01*
Y875030D01*
X631901D01*
X632484Y873622D01*
X630391Y871529D01*
X613147D01*
X613147Y871529D01*
X612056Y871312D01*
X611132Y870694D01*
X611132Y870694D01*
X601617Y861179D01*
X600999Y860255D01*
X600782Y859165D01*
X600782Y859164D01*
Y837029D01*
X600782Y837029D01*
X600999Y835939D01*
X601617Y835015D01*
X616911Y819720D01*
Y807658D01*
X616911Y807658D01*
X617128Y806568D01*
X617746Y805643D01*
X619234Y804156D01*
X619234Y804156D01*
X620158Y803538D01*
X621248Y803321D01*
X625976D01*
Y795026D01*
X644024D01*
Y795026D01*
X645172Y795501D01*
X685142Y755531D01*
Y744977D01*
X685753D01*
X685812Y744681D01*
X686430Y743757D01*
X709731Y720456D01*
X710656Y719838D01*
X711746Y719621D01*
X711746Y719621D01*
X746578D01*
Y684789D01*
X746578Y684789D01*
X746723Y684061D01*
X746683Y684035D01*
X745278Y683515D01*
X744454Y684340D01*
X743053Y684920D01*
X742514D01*
X732949Y694484D01*
X732025Y695102D01*
X730935Y695319D01*
X730935Y695319D01*
X680683D01*
Y699422D01*
Y709422D01*
Y719422D01*
Y729422D01*
Y740518D01*
X665697D01*
Y740319D01*
X656874D01*
X625759Y770486D01*
X626376Y772010D01*
X633730D01*
Y779780D01*
X624960D01*
Y773403D01*
X623436Y772771D01*
X622937Y773270D01*
X605755Y791416D01*
X605307Y794824D01*
X603912Y798191D01*
X601693Y801083D01*
X601647Y801037D01*
X601647Y801037D01*
X599890Y802795D01*
Y808320D01*
X600022Y808408D01*
X601271Y810277D01*
X601710Y812483D01*
Y820738D01*
X601271Y822943D01*
X600022Y824812D01*
X598153Y826061D01*
X595947Y826500D01*
X587692D01*
X585487Y826061D01*
X583618Y824812D01*
X582369Y822943D01*
X581930Y820738D01*
Y812483D01*
X582369Y810277D01*
X583618Y808408D01*
X585487Y807159D01*
X587692Y806720D01*
X594192D01*
Y802276D01*
X593541Y801503D01*
X593107Y801140D01*
X592763Y800989D01*
X590533D01*
X588046Y800323D01*
X585816Y799035D01*
X583995Y797214D01*
X582707Y794985D01*
X582041Y792497D01*
Y789923D01*
X582707Y787436D01*
X583995Y785206D01*
X585816Y783385D01*
X588046Y782097D01*
X590533Y781431D01*
X593107D01*
X595594Y782097D01*
X596425Y782577D01*
X647159Y731843D01*
X646527Y730319D01*
X631340D01*
X600453Y761205D01*
X600933Y762036D01*
X601599Y764523D01*
Y767097D01*
X600933Y769585D01*
X599645Y771814D01*
X597824Y773635D01*
X595594Y774923D01*
X593107Y775589D01*
X590533D01*
X588046Y774923D01*
X585816Y773635D01*
X583995Y771814D01*
X582707Y769585D01*
X582041Y767097D01*
Y764523D01*
X582707Y762036D01*
X583995Y759806D01*
X585816Y757985D01*
X588046Y756697D01*
X590533Y756031D01*
X593107D01*
X595594Y756697D01*
X596425Y757177D01*
X626758Y726843D01*
X626127Y725319D01*
X610940D01*
X600453Y735805D01*
X600933Y736636D01*
X601599Y739123D01*
Y741697D01*
X600933Y744184D01*
X599645Y746414D01*
X597824Y748235D01*
X595594Y749523D01*
X593107Y750189D01*
X590533D01*
X588046Y749523D01*
X585816Y748235D01*
X583995Y746414D01*
X582707Y744184D01*
X582041Y741697D01*
Y739123D01*
X582707Y736636D01*
X583995Y734406D01*
X585816Y732585D01*
X588046Y731297D01*
X590533Y730631D01*
X593107D01*
X595594Y731297D01*
X596425Y731777D01*
X606613Y721589D01*
X605981Y720065D01*
X600193D01*
X599645Y721014D01*
X597824Y722835D01*
X595594Y724123D01*
X593107Y724789D01*
X590533D01*
X588046Y724123D01*
X585816Y722835D01*
X583995Y721014D01*
X582707Y718784D01*
X582041Y716297D01*
Y713723D01*
X582707Y711236D01*
X583995Y709006D01*
X584667Y708334D01*
X584035Y706810D01*
X443473D01*
Y727508D01*
X443256Y728598D01*
X442638Y729522D01*
X442638Y729522D01*
X441244Y730917D01*
X441875Y732441D01*
X484940D01*
X484940Y732441D01*
X486030Y732658D01*
X486954Y733276D01*
X497925Y744246D01*
X511944D01*
Y760294D01*
X493896D01*
Y748275D01*
X483760Y738139D01*
X460953D01*
X460322Y739663D01*
X464905Y744246D01*
X478924D01*
Y760294D01*
X460876D01*
Y748275D01*
X455740Y743139D01*
X438032D01*
X437967Y743182D01*
X437080Y743359D01*
X434717D01*
X433399Y744540D01*
Y746040D01*
X433222Y746927D01*
X432719Y747680D01*
X431967Y748182D01*
X431080Y748359D01*
X429580D01*
X428399Y749677D01*
Y752040D01*
X428222Y752927D01*
X427719Y753679D01*
X426967Y754182D01*
X426080Y754359D01*
X424580D01*
X423693Y754182D01*
X423592Y754202D01*
X423452Y754412D01*
X422364Y755139D01*
X421600Y755291D01*
Y748290D01*
X419060D01*
Y755868D01*
X418179Y756670D01*
Y759550D01*
X417962Y760640D01*
X417645Y761114D01*
X418027Y762510D01*
X418224Y762783D01*
X418449Y762827D01*
X420213Y764006D01*
X421392Y765771D01*
X421806Y767852D01*
X421392Y769933D01*
X420213Y771697D01*
X417789Y774122D01*
X418041Y775844D01*
X418117Y775949D01*
X419118Y776950D01*
X419698Y778350D01*
Y779866D01*
X419125Y781248D01*
Y782508D01*
X447918Y811300D01*
X449326Y810717D01*
Y800735D01*
X453081D01*
Y787240D01*
X453081Y787240D01*
X453298Y786150D01*
X453916Y785226D01*
X460876Y778265D01*
Y766246D01*
X478924D01*
Y782294D01*
X464905D01*
X458779Y788420D01*
Y800735D01*
X462534D01*
Y813181D01*
X451790D01*
X451207Y814589D01*
X453355Y816737D01*
X462534D01*
Y820111D01*
X469646D01*
Y817499D01*
X482854D01*
Y820873D01*
X489966D01*
Y817499D01*
X503174D01*
Y820873D01*
X510286D01*
Y817499D01*
X523494D01*
Y829945D01*
X510286D01*
Y826571D01*
X503174D01*
Y829945D01*
X489966D01*
Y826571D01*
X482854D01*
Y829945D01*
X469646D01*
Y825809D01*
X462534D01*
Y829183D01*
X449326D01*
Y820766D01*
X414262Y785702D01*
X413645Y784778D01*
X413466Y783877D01*
X412951Y783620D01*
X411904Y783471D01*
X411324Y784339D01*
X405723Y789940D01*
X406870Y791087D01*
X408049Y792851D01*
X408462Y794932D01*
Y803948D01*
X408049Y806029D01*
X406870Y807793D01*
X400430Y814233D01*
X398666Y815412D01*
X396585Y815826D01*
X371094D01*
Y827913D01*
X361336D01*
X361061Y827968D01*
X361061Y827968D01*
X347090D01*
X346328Y828730D01*
X344928Y829310D01*
X343412D01*
X342012Y828730D01*
X340940Y827658D01*
X340360Y826258D01*
Y824742D01*
X340533Y824324D01*
X339515Y822800D01*
X337857D01*
X336890Y823978D01*
X336944Y824250D01*
Y824480D01*
X328575D01*
Y827020D01*
X336944D01*
Y827250D01*
X336631Y828826D01*
X335738Y830163D01*
X334401Y831056D01*
X334014Y831133D01*
X333431Y832803D01*
X333992Y833534D01*
X334675Y835182D01*
X334907Y836950D01*
X334675Y838718D01*
X333992Y840366D01*
X332906Y841781D01*
X331491Y842867D01*
X329843Y843550D01*
X328075Y843782D01*
X317575D01*
X315807Y843550D01*
X314159Y842867D01*
X312744Y841781D01*
X311658Y840366D01*
X311423Y839799D01*
X291907D01*
X291724Y840240D01*
X290678Y841603D01*
X289315Y842649D01*
X287728Y843306D01*
X286025Y843530D01*
X276025D01*
X274322Y843306D01*
X272735Y842649D01*
X271372Y841603D01*
X270326Y840240D01*
X269669Y838653D01*
X269445Y836950D01*
X269669Y835247D01*
X270326Y833660D01*
X271372Y832297D01*
X272735Y831251D01*
X274322Y830594D01*
X276025Y830370D01*
X286025D01*
X287728Y830594D01*
X289315Y831251D01*
X290678Y832297D01*
X291724Y833660D01*
X291907Y834101D01*
X308961D01*
X309545Y832693D01*
X292372Y815520D01*
X291754Y814596D01*
X291537Y813506D01*
X291537Y813506D01*
Y756465D01*
X290013Y755713D01*
X289315Y756249D01*
X287728Y756906D01*
X286025Y757130D01*
X276025D01*
X274322Y756906D01*
X272735Y756249D01*
X271372Y755203D01*
X270326Y753840D01*
X269669Y752253D01*
X269445Y750550D01*
X269669Y748847D01*
X270326Y747260D01*
X271372Y745897D01*
X272735Y744851D01*
X274322Y744194D01*
X276025Y743970D01*
X281906D01*
Y732755D01*
X281906Y732755D01*
X282123Y731665D01*
X282741Y730740D01*
X288562Y724919D01*
X288562Y724919D01*
X290198Y723283D01*
X290198Y723283D01*
X290830Y722861D01*
Y718058D01*
X298450D01*
X306070D01*
Y722861D01*
X306702Y723283D01*
X312384Y728965D01*
X313001Y729889D01*
X313218Y730979D01*
X313218Y730979D01*
Y742165D01*
X315239Y744185D01*
X315807Y743950D01*
X317575Y743717D01*
X319976D01*
Y739013D01*
X317246D01*
Y726567D01*
X330454D01*
Y739013D01*
X325674D01*
Y743717D01*
X328075D01*
X329843Y743950D01*
X331491Y744633D01*
X332906Y745719D01*
X333992Y747134D01*
X334675Y748782D01*
X334907Y750550D01*
X334675Y752318D01*
X333992Y753966D01*
X333431Y754697D01*
X334014Y756367D01*
X334401Y756444D01*
X335738Y757337D01*
X336631Y758674D01*
X336944Y760250D01*
Y760480D01*
X328575D01*
Y763020D01*
X336944D01*
Y763250D01*
X336899Y763475D01*
X336901Y763489D01*
X338162Y764942D01*
X341120D01*
X343202Y765356D01*
X344966Y766535D01*
X349286Y770854D01*
X350465Y772619D01*
X350878Y774700D01*
X350465Y776781D01*
X349286Y778546D01*
X347521Y779725D01*
X345440Y780138D01*
X343359Y779725D01*
X341594Y778546D01*
X338868Y775819D01*
X337060D01*
X336096Y776609D01*
X335867Y777135D01*
X335717Y777887D01*
X335272Y778750D01*
X335717Y779613D01*
X335894Y780500D01*
Y782000D01*
X337260Y782944D01*
X353215D01*
X355104Y781055D01*
Y778815D01*
X355349Y777586D01*
X356045Y776545D01*
X357086Y775849D01*
X358315Y775604D01*
X368065D01*
X369294Y775849D01*
X370335Y776545D01*
X371031Y777586D01*
X371276Y778815D01*
Y782065D01*
X371031Y783294D01*
X370335Y784335D01*
X371038Y785292D01*
X371068Y785312D01*
X371988Y786690D01*
X372312Y788315D01*
Y788670D01*
X363190D01*
Y791210D01*
X372312D01*
Y791565D01*
X371988Y793190D01*
X371068Y794568D01*
X371038Y794588D01*
X370335Y795545D01*
X371031Y796586D01*
X371276Y797815D01*
Y801065D01*
X371031Y802294D01*
X370335Y803335D01*
X370202Y803425D01*
X370664Y804949D01*
X383716D01*
X384178Y803425D01*
X384045Y803335D01*
X383349Y802294D01*
X383104Y801065D01*
Y798634D01*
X379882Y795412D01*
X379264Y794488D01*
X379047Y793397D01*
X379047Y793397D01*
Y776985D01*
X379047Y776985D01*
X379264Y775894D01*
X379882Y774970D01*
X390482Y764370D01*
X390176Y762601D01*
X390139Y762557D01*
X389103Y761521D01*
X388523Y760121D01*
Y758605D01*
X389103Y757205D01*
X389484Y756824D01*
Y748139D01*
X374904D01*
Y751205D01*
X361696D01*
Y748339D01*
X357124D01*
Y751713D01*
X343916D01*
Y743296D01*
X335679Y735058D01*
X335061Y734134D01*
X334844Y733044D01*
X334844Y733044D01*
Y718081D01*
X332878Y716114D01*
X331470Y716698D01*
Y724027D01*
X325120D01*
Y716788D01*
Y709549D01*
X328621D01*
Y701675D01*
X324866D01*
Y689229D01*
X338074D01*
Y701675D01*
X334319D01*
Y709498D01*
X337500Y712679D01*
X338908Y712096D01*
Y706233D01*
X338908Y706233D01*
X339125Y705143D01*
X339743Y704218D01*
X357548Y686413D01*
X356917Y684889D01*
X338074D01*
Y685673D01*
X324866D01*
Y673227D01*
X338074D01*
Y674012D01*
X377173D01*
X395417Y655767D01*
X395417Y655767D01*
X410505Y640679D01*
X412269Y639501D01*
X414351Y639086D01*
X419641D01*
X451485Y607243D01*
Y601726D01*
X453800D01*
Y591091D01*
X453159Y590257D01*
X452351Y588305D01*
X452075Y586210D01*
Y573210D01*
X452351Y571115D01*
X453159Y569163D01*
X454446Y567487D01*
X455634Y566575D01*
Y550960D01*
X455053Y550719D01*
X453377Y549433D01*
X452091Y547757D01*
X451283Y545805D01*
X451007Y543710D01*
Y530710D01*
X451283Y528615D01*
X452091Y526663D01*
X453377Y524987D01*
X455053Y523701D01*
X457005Y522892D01*
X459100Y522617D01*
X478481D01*
Y517142D01*
X478476Y517141D01*
X477435Y516445D01*
X475725D01*
X474684Y517141D01*
X473455Y517386D01*
X470205D01*
X468976Y517141D01*
X467935Y516445D01*
X467283Y515471D01*
X457454D01*
Y516255D01*
X451937D01*
X443588Y524604D01*
Y600710D01*
X443175Y602791D01*
X441996Y604556D01*
X377226Y669326D01*
X375461Y670505D01*
X373380Y670919D01*
X371299Y670505D01*
X369534Y669326D01*
X368355Y667561D01*
X367942Y665480D01*
X368355Y663399D01*
X369534Y661634D01*
X432711Y598457D01*
Y522351D01*
X433125Y520270D01*
X434304Y518505D01*
X444246Y508564D01*
Y503809D01*
X457454D01*
Y504594D01*
X466951D01*
Y501898D01*
X467365Y499817D01*
X468544Y498053D01*
X474861Y491736D01*
X474772Y490366D01*
X473463Y489384D01*
X473455Y489386D01*
X470205D01*
X468976Y489141D01*
X467935Y488445D01*
X467239Y487404D01*
X466994Y486175D01*
Y476425D01*
X467239Y475196D01*
X467935Y474155D01*
X468976Y473459D01*
X468981Y473458D01*
Y467614D01*
X464947D01*
Y454406D01*
X477393D01*
Y463036D01*
X478801Y463619D01*
X496379Y446042D01*
X496379Y446042D01*
X497303Y445424D01*
X498393Y445207D01*
X561227D01*
X561227Y445207D01*
X562318Y445424D01*
X563242Y446042D01*
X564878Y447678D01*
X564878Y447678D01*
X565496Y448602D01*
X565713Y449693D01*
X565713Y449693D01*
Y461405D01*
X565496Y462495D01*
X564878Y463420D01*
X564878Y463420D01*
X562734Y465564D01*
X561809Y466182D01*
X561594Y466225D01*
Y468702D01*
X569401D01*
Y465328D01*
X582609D01*
Y468702D01*
X590416D01*
Y466096D01*
X604435D01*
X607963Y462568D01*
X607380Y461160D01*
X600710D01*
Y453390D01*
X609480D01*
Y457776D01*
X611004Y458551D01*
X611449Y458226D01*
Y454779D01*
X611449Y454779D01*
X611666Y453689D01*
X612283Y452764D01*
X620911Y444137D01*
X621835Y443519D01*
X622925Y443302D01*
X622926Y443302D01*
X669671D01*
X669671Y443302D01*
X670761Y443519D01*
X671685Y444137D01*
X676115Y448567D01*
X676945Y448087D01*
X679433Y447421D01*
X682007D01*
X684494Y448087D01*
X686724Y449375D01*
X688545Y451196D01*
X689833Y453425D01*
X690499Y455913D01*
Y458487D01*
X689833Y460975D01*
X688545Y463204D01*
X686724Y465025D01*
X684494Y466313D01*
X682007Y466979D01*
X679433D01*
X676945Y466313D01*
X674716Y465025D01*
X672895Y463204D01*
X671607Y460975D01*
X670941Y458487D01*
Y455913D01*
X671607Y453425D01*
X672087Y452595D01*
X668491Y449000D01*
X663105D01*
X662473Y450524D01*
X663145Y451196D01*
X664433Y453425D01*
X665099Y455913D01*
Y458487D01*
X664433Y460975D01*
X663145Y463204D01*
X661324Y465025D01*
X659094Y466313D01*
X658169Y466561D01*
Y482600D01*
X658169Y482600D01*
X657952Y483690D01*
X657334Y484614D01*
X657334Y484614D01*
X647700Y494249D01*
Y494788D01*
X647215Y495957D01*
X647579Y496877D01*
X647982Y497481D01*
X693062D01*
Y446424D01*
X693475Y444342D01*
X694654Y442578D01*
X698829Y438404D01*
X698524Y437270D01*
X698250Y436880D01*
X378460D01*
X254000Y561340D01*
Y1090930D01*
X981710D01*
X1017270Y1055370D01*
D02*
G37*
G36*
X524510Y531241D02*
X528215D01*
Y510126D01*
X527233Y509143D01*
X521716D01*
Y496697D01*
X534924D01*
Y497481D01*
X639798D01*
X640201Y496877D01*
X640564Y495957D01*
X640080Y494788D01*
Y493272D01*
X640660Y491872D01*
X641732Y490800D01*
X643132Y490220D01*
X643671D01*
X652471Y481420D01*
Y466561D01*
X651545Y466313D01*
X649316Y465025D01*
X647495Y463204D01*
X646207Y460975D01*
X645541Y458487D01*
Y455913D01*
X646207Y453425D01*
X647495Y451196D01*
X648167Y450524D01*
X647535Y449000D01*
X641152D01*
X640209Y450524D01*
X640543Y451332D01*
X640772Y453073D01*
Y455930D01*
X629920D01*
Y457200D01*
X628650D01*
Y468052D01*
X625793D01*
X624052Y467823D01*
X622430Y467151D01*
X621037Y466083D01*
X619968Y464690D01*
X619297Y463068D01*
X619067Y461328D01*
Y457396D01*
X617543Y456604D01*
X617146Y456883D01*
Y460262D01*
X617146Y460262D01*
X616930Y461352D01*
X616312Y462277D01*
X616312Y462277D01*
X608464Y470125D01*
Y482144D01*
X590416D01*
Y474400D01*
X582609D01*
Y477774D01*
X569401D01*
Y474400D01*
X561594D01*
Y477774D01*
X548386D01*
Y470445D01*
X546978Y469861D01*
X534979Y481861D01*
Y483489D01*
X534979Y483489D01*
X534924Y483764D01*
Y493141D01*
X521716D01*
Y480695D01*
X527843D01*
X529281Y480681D01*
X529498Y479590D01*
X530116Y478666D01*
X546270Y462511D01*
X545639Y460988D01*
X502492D01*
X491673Y471806D01*
X492257Y473214D01*
X492455D01*
X493684Y473459D01*
X494725Y474155D01*
X495421Y475196D01*
X495666Y476425D01*
Y484450D01*
X502666D01*
Y481076D01*
X515874D01*
Y493522D01*
X502666D01*
Y490148D01*
X493771D01*
X493771Y490148D01*
X492681Y489931D01*
X491865Y489386D01*
X489205D01*
X487976Y489141D01*
X487734Y488980D01*
X486211Y489794D01*
Y493517D01*
X485797Y495598D01*
X484618Y497362D01*
X482173Y499806D01*
X482757Y501214D01*
X482955D01*
X484184Y501459D01*
X485225Y502155D01*
X486182Y501452D01*
X486202Y501422D01*
X487580Y500502D01*
X489205Y500178D01*
X489560D01*
Y509300D01*
X490830D01*
Y510570D01*
X497696D01*
X498110Y510741D01*
X502666Y506185D01*
Y497078D01*
X515874D01*
Y509524D01*
X507384D01*
X496300Y520608D01*
X495575Y521093D01*
X495588Y521879D01*
X495828Y522617D01*
X506100D01*
X508195Y522892D01*
X510147Y523701D01*
X511823Y524987D01*
X513109Y526663D01*
X513918Y528615D01*
X514193Y530710D01*
Y531006D01*
X515620Y531241D01*
Y531241D01*
X521970D01*
Y538480D01*
X524510D01*
Y531241D01*
D02*
G37*
G36*
X731211Y636786D02*
Y635000D01*
X731211Y635000D01*
X731428Y633910D01*
X732046Y632986D01*
X771851Y593180D01*
Y548550D01*
X738178Y514877D01*
X737560Y513952D01*
X737343Y512862D01*
X736183Y512064D01*
X732155D01*
Y498856D01*
X737363D01*
X738522Y498057D01*
X738739Y496967D01*
X739357Y496043D01*
X741371Y494028D01*
Y466561D01*
X740445Y466313D01*
X738216Y465025D01*
X736395Y463204D01*
X735107Y460975D01*
X734441Y458487D01*
Y455913D01*
X735107Y453425D01*
X736395Y451196D01*
X738216Y449375D01*
X738999Y448923D01*
X738591Y447398D01*
X724449D01*
X724041Y448923D01*
X724824Y449375D01*
X726645Y451196D01*
X727933Y453425D01*
X728599Y455913D01*
Y458487D01*
X727933Y460975D01*
X726645Y463204D01*
X724824Y465025D01*
X722595Y466313D01*
X721669Y466561D01*
Y498856D01*
X725043D01*
Y501451D01*
X725841Y502611D01*
X726931Y502828D01*
X727856Y503446D01*
X729343Y504934D01*
X729343Y504934D01*
X729961Y505858D01*
X730178Y506948D01*
Y514059D01*
X768713Y552595D01*
X769331Y553519D01*
X769548Y554609D01*
X769548Y554609D01*
Y587506D01*
X769548Y587507D01*
X769331Y588597D01*
X768713Y589521D01*
X752721Y605513D01*
X751797Y606131D01*
X750706Y606348D01*
X750706Y606348D01*
X731928D01*
X721575Y616701D01*
X722159Y618109D01*
X730250D01*
Y624078D01*
X722630D01*
Y625348D01*
X721360D01*
Y632587D01*
X717605D01*
Y635127D01*
X729234D01*
Y636346D01*
X730758Y637118D01*
X731211Y636786D01*
D02*
G37*
%LPC*%
G36*
X708629Y928370D02*
X691391D01*
Y928140D01*
X691704Y926564D01*
X692597Y925227D01*
X692853Y925056D01*
Y923224D01*
X692597Y923053D01*
X691704Y921716D01*
X691391Y920140D01*
Y919910D01*
X708629D01*
Y920140D01*
X708316Y921716D01*
X707423Y923053D01*
X707167Y923224D01*
Y925056D01*
X707423Y925227D01*
X708316Y926564D01*
X708629Y928140D01*
Y928370D01*
D02*
G37*
G36*
X698740Y917370D02*
X691391D01*
Y917140D01*
X691704Y915564D01*
X692597Y914227D01*
X693934Y913334D01*
X695510Y913021D01*
X698740D01*
Y917370D01*
D02*
G37*
G36*
X734510Y934223D02*
X725510D01*
X724330Y933988D01*
X723330Y933320D01*
X722662Y932320D01*
X722427Y931140D01*
Y929085D01*
X710109Y916768D01*
X709357Y916957D01*
X708739Y917370D01*
X701280D01*
Y913021D01*
X704510D01*
X704729Y913064D01*
X704878Y912985D01*
X705901Y911744D01*
X705811Y911290D01*
X705811Y911290D01*
Y903224D01*
X698246D01*
Y890778D01*
X711454D01*
Y900155D01*
X711509Y900430D01*
X711509Y900430D01*
Y910110D01*
X720903Y919504D01*
X722427Y918873D01*
Y917206D01*
X722321Y916675D01*
X722321Y916675D01*
Y903224D01*
X718566D01*
Y890778D01*
X731774D01*
Y903224D01*
X728019D01*
Y914057D01*
X734510D01*
X735690Y914292D01*
X736690Y914960D01*
X737358Y915960D01*
X737593Y917140D01*
Y920140D01*
X737358Y921320D01*
X736690Y922320D01*
X735690Y922989D01*
X734510Y923223D01*
X728275D01*
X727460Y924747D01*
X727667Y925057D01*
X734510D01*
X735690Y925292D01*
X736690Y925960D01*
X737358Y926960D01*
X737593Y928140D01*
Y931140D01*
X737358Y932320D01*
X736690Y933320D01*
X735690Y933988D01*
X734510Y934223D01*
D02*
G37*
G36*
X986670Y901850D02*
X977900D01*
Y894080D01*
X986670D01*
Y901850D01*
D02*
G37*
G36*
X975360D02*
X966590D01*
Y894080D01*
X975360D01*
Y901850D01*
D02*
G37*
G36*
X1008530Y897770D02*
X1000760D01*
Y889000D01*
X1008530D01*
Y897770D01*
D02*
G37*
G36*
X998220D02*
X990450D01*
Y889000D01*
X998220D01*
Y897770D01*
D02*
G37*
G36*
X986670Y891540D02*
X977900D01*
Y883770D01*
X986670D01*
Y891540D01*
D02*
G37*
G36*
X975360D02*
X966590D01*
Y883770D01*
X975360D01*
Y891540D01*
D02*
G37*
G36*
X998220Y886460D02*
X990450D01*
Y877690D01*
X998220D01*
Y886460D01*
D02*
G37*
G36*
X927170Y826650D02*
X921400D01*
Y817880D01*
X927170D01*
Y826650D01*
D02*
G37*
G36*
X918860D02*
X913090D01*
Y817880D01*
X918860D01*
Y826650D01*
D02*
G37*
G36*
X927170Y815340D02*
X921400D01*
Y806570D01*
X927170D01*
Y815340D01*
D02*
G37*
G36*
X918860D02*
X913090D01*
Y806570D01*
X918860D01*
Y815340D01*
D02*
G37*
G36*
X995170Y736550D02*
X990400D01*
Y731780D01*
X995170D01*
Y736550D01*
D02*
G37*
G36*
X965860D02*
X961090D01*
Y731780D01*
X965860D01*
Y736550D01*
D02*
G37*
G36*
X987860D02*
X979400D01*
Y730510D01*
X976860D01*
Y736550D01*
X968400D01*
Y730510D01*
X967130D01*
Y729240D01*
X961090D01*
Y724470D01*
Y720780D01*
X967130D01*
Y718240D01*
X961090D01*
Y713470D01*
Y709780D01*
X967130D01*
Y708510D01*
X968400D01*
Y702470D01*
X976860D01*
Y708510D01*
X979400D01*
Y702470D01*
X987860D01*
Y708510D01*
X989130D01*
Y709780D01*
X995170D01*
Y713470D01*
Y718240D01*
X989130D01*
Y720780D01*
X995170D01*
Y724470D01*
Y729240D01*
X989130D01*
Y730510D01*
X987860D01*
Y736550D01*
D02*
G37*
G36*
X995170Y707240D02*
X990400D01*
Y702470D01*
X995170D01*
Y707240D01*
D02*
G37*
G36*
X965860Y707240D02*
X961090D01*
Y702470D01*
X965860D01*
Y707240D01*
D02*
G37*
G36*
X509674Y618624D02*
X493626D01*
Y611179D01*
X479933D01*
Y614934D01*
X467487D01*
Y601726D01*
X479933D01*
Y605481D01*
X493626D01*
Y600576D01*
X509674D01*
Y618624D01*
D02*
G37*
G36*
X532690Y619640D02*
X524920D01*
Y610870D01*
X532690D01*
Y619640D01*
D02*
G37*
G36*
X522380D02*
X514610D01*
Y610870D01*
X522380D01*
Y619640D01*
D02*
G37*
G36*
X532690Y608330D02*
X524920D01*
Y599560D01*
X532690D01*
Y608330D01*
D02*
G37*
G36*
X522380D02*
X514610D01*
Y599560D01*
X522380D01*
Y608330D01*
D02*
G37*
G36*
X1046154Y650634D02*
X1034106D01*
Y632586D01*
X1034741D01*
Y623480D01*
X1030772Y619511D01*
X1030154Y618586D01*
X1029938Y617496D01*
X1029938Y617496D01*
Y616835D01*
X1027466Y616173D01*
X1025236Y614885D01*
X1023415Y613064D01*
X1022127Y610835D01*
X1021461Y608347D01*
Y605773D01*
X1022127Y603285D01*
X1023415Y601056D01*
X1025236Y599235D01*
X1027466Y597947D01*
X1029953Y597281D01*
X1030885D01*
X1031516Y595757D01*
X1026933Y591173D01*
X1026276Y591043D01*
X1025142Y590285D01*
X1025142Y590285D01*
X1011691Y576834D01*
X1005260D01*
Y594863D01*
X1005082Y595757D01*
X1005237Y596227D01*
X1005989Y597281D01*
X1007127D01*
X1009614Y597947D01*
X1011844Y599235D01*
X1013665Y601056D01*
X1014953Y603285D01*
X1015619Y605773D01*
Y608347D01*
X1014953Y610835D01*
X1013665Y613064D01*
X1011844Y614885D01*
X1009614Y616173D01*
X1008689Y616421D01*
Y618140D01*
X1023135Y632586D01*
X1031154D01*
Y650634D01*
X1019106D01*
Y636615D01*
X1017562Y635071D01*
X1016154Y635654D01*
Y650634D01*
X1004106D01*
Y632586D01*
X1005026D01*
X1005609Y631178D01*
X1002801Y628370D01*
X1002068Y628337D01*
X1001770Y628525D01*
X1000760Y629677D01*
Y630678D01*
X1000601Y631062D01*
X1001154Y632586D01*
X1001154D01*
Y650634D01*
X989106D01*
Y635654D01*
X987698Y635071D01*
X986154Y636615D01*
Y650634D01*
X974106D01*
Y632586D01*
X982125D01*
X986158Y628553D01*
X985295Y627261D01*
X985008Y627380D01*
X983492D01*
X982092Y626800D01*
X981020Y625728D01*
X980440Y624328D01*
Y623239D01*
X978426Y621225D01*
X977808Y620300D01*
X977591Y619210D01*
X977591Y619210D01*
Y616421D01*
X976665Y616173D01*
X974436Y614885D01*
X972733Y613182D01*
X972214Y613239D01*
X971209Y613677D01*
Y638380D01*
X971209Y638380D01*
X971154Y638655D01*
Y650634D01*
X959106D01*
Y632586D01*
X959106D01*
X959684Y631062D01*
X959430Y630808D01*
X958850Y629408D01*
Y628869D01*
X953026Y623044D01*
X952408Y622120D01*
X952191Y621030D01*
X952191Y621030D01*
Y616421D01*
X951265Y616173D01*
X949036Y614885D01*
X947215Y613064D01*
X945927Y610835D01*
X945261Y608347D01*
Y605773D01*
X945927Y603285D01*
X947215Y601056D01*
X949036Y599235D01*
X951265Y597947D01*
X953753Y597281D01*
X956327D01*
X958814Y597947D01*
X961044Y599235D01*
X962865Y601056D01*
X963987Y602999D01*
X965242Y602850D01*
X965511Y602743D01*
Y551680D01*
X965511Y551680D01*
X965728Y550590D01*
X966346Y549666D01*
X972511Y543500D01*
Y466561D01*
X971585Y466313D01*
X969356Y465025D01*
X967535Y463204D01*
X966247Y460975D01*
X965581Y458487D01*
Y455913D01*
X966247Y453425D01*
X967535Y451196D01*
X969356Y449375D01*
X971585Y448087D01*
X974073Y447421D01*
X976647D01*
X979135Y448087D01*
X981364Y449375D01*
X983185Y451196D01*
X984473Y453425D01*
X985139Y455913D01*
Y458487D01*
X984473Y460975D01*
X983185Y463204D01*
X981364Y465025D01*
X979135Y466313D01*
X978209Y466561D01*
Y544680D01*
X978209Y544680D01*
X977992Y545770D01*
X977374Y546694D01*
X977374Y546695D01*
X971209Y552860D01*
Y600443D01*
X972214Y600881D01*
X972733Y600938D01*
X974436Y599235D01*
X976665Y597947D01*
X979153Y597281D01*
X981727D01*
X984214Y597947D01*
X985045Y598427D01*
X992069Y591402D01*
Y576834D01*
X988187D01*
Y563626D01*
X999562D01*
Y466979D01*
X999473D01*
X996985Y466313D01*
X994756Y465025D01*
X992935Y463204D01*
X991647Y460975D01*
X990981Y458487D01*
Y455913D01*
X991647Y453425D01*
X992935Y451196D01*
X994756Y449375D01*
X996985Y448087D01*
X999473Y447421D01*
X1002047D01*
X1004535Y448087D01*
X1006764Y449375D01*
X1008585Y451196D01*
X1009873Y453425D01*
X1010539Y455913D01*
Y458487D01*
X1009873Y460975D01*
X1008585Y463204D01*
X1006764Y465025D01*
X1005260Y465894D01*
Y563626D01*
X1016635D01*
Y571890D01*
X1029197Y584452D01*
X1029854Y584583D01*
X1030988Y585340D01*
X1048952Y603304D01*
X1049710Y604438D01*
X1049976Y605776D01*
Y624594D01*
X1050290Y625352D01*
Y626868D01*
X1049710Y628268D01*
X1048638Y629340D01*
X1047238Y629920D01*
X1045722D01*
X1044322Y629340D01*
X1043250Y628268D01*
X1042670Y626868D01*
Y625352D01*
X1042984Y624594D01*
Y608251D01*
X1042543Y607956D01*
X1041908Y608119D01*
X1040923Y608707D01*
X1040353Y610835D01*
X1039065Y613064D01*
X1037244Y614885D01*
X1036666Y615219D01*
X1036432Y617114D01*
X1039604Y620286D01*
X1039604Y620286D01*
X1040222Y621210D01*
X1040439Y622300D01*
X1040439Y622300D01*
Y632586D01*
X1046154D01*
Y650634D01*
D02*
G37*
G36*
X887881Y467995D02*
X887730D01*
Y458470D01*
X897255D01*
Y458621D01*
X896519Y461367D01*
X895098Y463828D01*
X893088Y465838D01*
X890627Y467259D01*
X887881Y467995D01*
D02*
G37*
G36*
X799147Y468052D02*
X796290D01*
Y458470D01*
X805872D01*
Y461328D01*
X805643Y463068D01*
X804971Y464690D01*
X803903Y466083D01*
X802510Y467151D01*
X800888Y467823D01*
X799147Y468052D01*
D02*
G37*
G36*
X1030287D02*
X1027430D01*
Y458470D01*
X1037012D01*
Y461328D01*
X1036783Y463068D01*
X1036112Y464690D01*
X1035043Y466083D01*
X1033650Y467151D01*
X1032028Y467823D01*
X1030287Y468052D01*
D02*
G37*
G36*
X885190Y467995D02*
X885039D01*
X882293Y467259D01*
X879832Y465838D01*
X877822Y463828D01*
X876401Y461367D01*
X875665Y458621D01*
Y458470D01*
X885190D01*
Y467995D01*
D02*
G37*
G36*
X793750Y468052D02*
X790892D01*
X789152Y467823D01*
X787530Y467151D01*
X786137Y466083D01*
X785069Y464690D01*
X784397Y463068D01*
X784167Y461328D01*
Y458470D01*
X793750D01*
Y468052D01*
D02*
G37*
G36*
X1024890D02*
X1022032D01*
X1020292Y467823D01*
X1018670Y467151D01*
X1017277Y466083D01*
X1016208Y464690D01*
X1015537Y463068D01*
X1015307Y461328D01*
Y458470D01*
X1024890D01*
Y468052D01*
D02*
G37*
G36*
X897255Y455930D02*
X887730D01*
Y446405D01*
X887881D01*
X890627Y447141D01*
X893088Y448562D01*
X895098Y450572D01*
X896519Y453033D01*
X897255Y455779D01*
Y455930D01*
D02*
G37*
G36*
X885190D02*
X875665D01*
Y455779D01*
X876401Y453033D01*
X877822Y450572D01*
X879832Y448562D01*
X882293Y447141D01*
X885039Y446405D01*
X885190D01*
Y455930D01*
D02*
G37*
G36*
X1037012D02*
X1027430D01*
Y446348D01*
X1030287D01*
X1032028Y446577D01*
X1033650Y447248D01*
X1035043Y448317D01*
X1036112Y449710D01*
X1036783Y451332D01*
X1037012Y453073D01*
Y455930D01*
D02*
G37*
G36*
X1024890D02*
X1015307D01*
Y453073D01*
X1015537Y451332D01*
X1016208Y449710D01*
X1017277Y448317D01*
X1018670Y447248D01*
X1020292Y446577D01*
X1022032Y446348D01*
X1024890D01*
Y455930D01*
D02*
G37*
G36*
X805872D02*
X796290D01*
Y446348D01*
X799147D01*
X800888Y446577D01*
X802510Y447248D01*
X803903Y448317D01*
X804971Y449710D01*
X805643Y451332D01*
X805872Y453073D01*
Y455930D01*
D02*
G37*
G36*
X793750D02*
X784167D01*
Y453073D01*
X784397Y451332D01*
X785069Y449710D01*
X786137Y448317D01*
X787530Y447248D01*
X789152Y446577D01*
X790892Y446348D01*
X793750D01*
Y455930D01*
D02*
G37*
G36*
X748030Y799338D02*
X741680D01*
Y793369D01*
X748030D01*
Y799338D01*
D02*
G37*
G36*
Y790829D02*
X741680D01*
Y784860D01*
X748030D01*
Y790829D01*
D02*
G37*
G36*
X360299Y711200D02*
X354330D01*
Y704850D01*
X360299D01*
Y711200D01*
D02*
G37*
G36*
X700252Y1078101D02*
X655962D01*
X654072Y1077852D01*
X652311Y1077122D01*
X650799Y1075962D01*
X635728Y1060891D01*
X615854D01*
Y1061114D01*
X600806D01*
Y1060891D01*
X499600D01*
X498301Y1062191D01*
X496243Y1063379D01*
X493948Y1063994D01*
X491572D01*
X489277Y1063379D01*
X487219Y1062191D01*
X486617Y1061588D01*
X402320D01*
X401562Y1062722D01*
X399818Y1063888D01*
X397760Y1064297D01*
X390260D01*
X388202Y1063888D01*
X386458Y1062722D01*
X385292Y1060978D01*
X384883Y1058920D01*
Y1026420D01*
X385292Y1024362D01*
X386458Y1022618D01*
X388202Y1021452D01*
X390260Y1021043D01*
X397760D01*
X399818Y1021452D01*
X401562Y1022618D01*
X402728Y1024362D01*
X403137Y1026420D01*
Y1046985D01*
X488542D01*
X489277Y1046561D01*
X491572Y1045946D01*
X493948D01*
X495226Y1046289D01*
X600806D01*
Y1046066D01*
X615854D01*
Y1046289D01*
X638753D01*
X640642Y1046537D01*
X642403Y1047267D01*
X643915Y1048427D01*
X656028Y1060540D01*
X657436Y1059957D01*
Y1048362D01*
X637966Y1028892D01*
X615854D01*
Y1029114D01*
X600806D01*
Y1014066D01*
X615854D01*
Y1014288D01*
X640990D01*
X642880Y1014537D01*
X644641Y1015267D01*
X646153Y1016427D01*
X667762Y1038036D01*
X674158D01*
X697374Y1014821D01*
Y999345D01*
X697622Y997455D01*
X698352Y995694D01*
X699512Y994182D01*
X701297Y992397D01*
X702809Y991237D01*
X702877Y991209D01*
X703042Y990380D01*
X703710Y989380D01*
X704710Y988711D01*
X705890Y988477D01*
X708890D01*
X710070Y988711D01*
X711070Y989380D01*
X711739Y990380D01*
X711973Y991560D01*
Y991952D01*
X712553Y992397D01*
X713713Y993909D01*
X714443Y995670D01*
X714691Y997560D01*
X714443Y999450D01*
X713713Y1001211D01*
X712553Y1002723D01*
X711976Y1003165D01*
Y1017845D01*
X711728Y1019735D01*
X710998Y1021496D01*
X709838Y1023008D01*
X684484Y1048362D01*
Y1063497D01*
X697227D01*
X707693Y1053031D01*
X707436Y1052070D01*
Y1048510D01*
X708358Y1045070D01*
X710138Y1041986D01*
X712656Y1039468D01*
X715740Y1037688D01*
X719180Y1036766D01*
X722740D01*
X726180Y1037688D01*
X729264Y1039468D01*
X731782Y1041986D01*
X733562Y1045070D01*
X734484Y1048510D01*
Y1052070D01*
X733562Y1055510D01*
X731782Y1058594D01*
X729264Y1061112D01*
X726180Y1062892D01*
X722740Y1063814D01*
X719180D01*
X717904Y1063472D01*
X705415Y1075962D01*
X703903Y1077122D01*
X702141Y1077852D01*
X700252Y1078101D01*
D02*
G37*
G36*
X796860Y1066100D02*
X783590D01*
Y1052830D01*
X796860D01*
Y1066100D01*
D02*
G37*
G36*
X781050D02*
X767780D01*
Y1052830D01*
X781050D01*
Y1066100D01*
D02*
G37*
G36*
X337760Y1062833D02*
X335280D01*
Y1043940D01*
X344173D01*
Y1056420D01*
X343685Y1058874D01*
X342295Y1060955D01*
X340214Y1062345D01*
X337760Y1062833D01*
D02*
G37*
G36*
X332740D02*
X330260D01*
X327806Y1062345D01*
X325725Y1060955D01*
X324335Y1058874D01*
X323847Y1056420D01*
Y1043940D01*
X332740D01*
Y1062833D01*
D02*
G37*
G36*
X998776Y1056130D02*
X998220D01*
Y1038860D01*
X1015490D01*
Y1039416D01*
X1014778Y1042998D01*
X1013380Y1046372D01*
X1011351Y1049409D01*
X1008769Y1051991D01*
X1005732Y1054020D01*
X1002358Y1055417D01*
X998776Y1056130D01*
D02*
G37*
G36*
X995680D02*
X995124D01*
X991542Y1055417D01*
X988168Y1054020D01*
X985131Y1051991D01*
X982549Y1049409D01*
X980520Y1046372D01*
X979122Y1042998D01*
X978410Y1039416D01*
Y1038860D01*
X995680D01*
Y1056130D01*
D02*
G37*
G36*
X796860Y1050290D02*
X783590D01*
Y1037020D01*
X796860D01*
Y1050290D01*
D02*
G37*
G36*
X781050D02*
X767780D01*
Y1037020D01*
X781050D01*
Y1050290D01*
D02*
G37*
G36*
X494082Y1040010D02*
X494030D01*
Y1031240D01*
X502800D01*
Y1031292D01*
X502116Y1033845D01*
X500794Y1036135D01*
X498925Y1038004D01*
X496635Y1039326D01*
X494082Y1040010D01*
D02*
G37*
G36*
X491490D02*
X491438D01*
X488885Y1039326D01*
X486595Y1038004D01*
X484726Y1036135D01*
X483404Y1033845D01*
X482720Y1031292D01*
Y1031240D01*
X491490D01*
Y1040010D01*
D02*
G37*
G36*
X344173Y1041400D02*
X335280D01*
Y1022507D01*
X337760D01*
X340214Y1022995D01*
X342295Y1024385D01*
X343685Y1026466D01*
X344173Y1028920D01*
Y1041400D01*
D02*
G37*
G36*
X332740D02*
X323847D01*
Y1028920D01*
X324335Y1026466D01*
X325725Y1024385D01*
X327806Y1022995D01*
X330260Y1022507D01*
X332740D01*
Y1041400D01*
D02*
G37*
G36*
X502800Y1028700D02*
X494030D01*
Y1019930D01*
X494082D01*
X496635Y1020614D01*
X498925Y1021936D01*
X500794Y1023805D01*
X502116Y1026095D01*
X502800Y1028648D01*
Y1028700D01*
D02*
G37*
G36*
X491490D02*
X482720D01*
Y1028648D01*
X483404Y1026095D01*
X484726Y1023805D01*
X486595Y1021936D01*
X488885Y1020614D01*
X491438Y1019930D01*
X491490D01*
Y1028700D01*
D02*
G37*
G36*
X1015490Y1036320D02*
X998220D01*
Y1019050D01*
X998776D01*
X1002358Y1019762D01*
X1005732Y1021160D01*
X1008769Y1023189D01*
X1011351Y1025771D01*
X1013380Y1028808D01*
X1014778Y1032182D01*
X1015490Y1035764D01*
Y1036320D01*
D02*
G37*
G36*
X995680D02*
X978410D01*
Y1035764D01*
X979122Y1032182D01*
X980520Y1028808D01*
X982549Y1025771D01*
X985131Y1023189D01*
X988168Y1021160D01*
X991542Y1019762D01*
X995124Y1019050D01*
X995680D01*
Y1036320D01*
D02*
G37*
G36*
X377760Y1005833D02*
X365280D01*
Y996940D01*
X384173D01*
Y999420D01*
X383685Y1001874D01*
X382295Y1003955D01*
X380214Y1005345D01*
X377760Y1005833D01*
D02*
G37*
G36*
X362740D02*
X350260D01*
X347806Y1005345D01*
X345725Y1003955D01*
X344335Y1001874D01*
X343847Y999420D01*
Y996940D01*
X362740D01*
Y1005833D01*
D02*
G37*
G36*
X384173Y994400D02*
X365280D01*
Y985507D01*
X377760D01*
X380214Y985995D01*
X382295Y987385D01*
X383685Y989466D01*
X384173Y991920D01*
Y994400D01*
D02*
G37*
G36*
X362740D02*
X343847D01*
Y991920D01*
X344335Y989466D01*
X345725Y987385D01*
X347806Y985995D01*
X350260Y985507D01*
X362740D01*
Y994400D01*
D02*
G37*
G36*
X879290Y988604D02*
X877810D01*
Y980480D01*
X884684D01*
Y983210D01*
X884273Y985274D01*
X883104Y987024D01*
X881354Y988193D01*
X879290Y988604D01*
D02*
G37*
G36*
X875270D02*
X873790D01*
X871726Y988193D01*
X869976Y987024D01*
X868807Y985274D01*
X868396Y983210D01*
Y980480D01*
X875270D01*
Y988604D01*
D02*
G37*
G36*
X718390Y988679D02*
X718160D01*
Y979830D01*
X722509D01*
Y984560D01*
X722196Y986136D01*
X721303Y987473D01*
X719966Y988366D01*
X718390Y988679D01*
D02*
G37*
G36*
X715620D02*
X715390D01*
X713814Y988366D01*
X712477Y987473D01*
X711584Y986136D01*
X711271Y984560D01*
Y979830D01*
X715620D01*
Y988679D01*
D02*
G37*
G36*
X884684Y977940D02*
X877810D01*
Y969816D01*
X879290D01*
X881354Y970227D01*
X883104Y971396D01*
X884273Y973146D01*
X884684Y975210D01*
Y977940D01*
D02*
G37*
G36*
X875270D02*
X868396D01*
Y975210D01*
X868807Y973146D01*
X869976Y971396D01*
X871726Y970227D01*
X873790Y969816D01*
X875270D01*
Y977940D01*
D02*
G37*
G36*
X1016000Y973201D02*
X1009650D01*
Y967232D01*
X1016000D01*
Y973201D01*
D02*
G37*
G36*
X1007110D02*
X1000760D01*
Y967232D01*
X1007110D01*
Y973201D01*
D02*
G37*
G36*
X1016000Y964692D02*
X1009650D01*
Y958723D01*
X1016000D01*
Y964692D01*
D02*
G37*
G36*
X1007110D02*
X1000760D01*
Y958723D01*
X1007110D01*
Y964692D01*
D02*
G37*
G36*
X635635Y938530D02*
X629666D01*
Y932180D01*
X635635D01*
Y938530D01*
D02*
G37*
G36*
X879290Y930104D02*
X877810D01*
Y921980D01*
X884684D01*
Y924710D01*
X884273Y926774D01*
X883104Y928524D01*
X881354Y929693D01*
X879290Y930104D01*
D02*
G37*
G36*
X635635Y929640D02*
X628396D01*
X621157D01*
Y923290D01*
X621919D01*
Y918210D01*
X629158D01*
X636397D01*
Y924560D01*
X635635D01*
Y929640D01*
D02*
G37*
G36*
X636397Y915670D02*
X629158D01*
X621919D01*
Y909574D01*
X621919Y909320D01*
Y908050D01*
X621919Y907796D01*
Y901700D01*
X629158D01*
X636397D01*
Y907796D01*
X636397Y908050D01*
Y909320D01*
X636397Y909574D01*
Y915670D01*
D02*
G37*
G36*
Y899160D02*
X630428D01*
Y892810D01*
X636397D01*
Y899160D01*
D02*
G37*
G36*
X627888D02*
X621919D01*
Y892810D01*
X627888D01*
Y899160D01*
D02*
G37*
G36*
X636397Y890270D02*
X630428D01*
Y883920D01*
X636397D01*
Y890270D01*
D02*
G37*
G36*
X627888D02*
X621919D01*
Y883920D01*
X627888D01*
Y890270D01*
D02*
G37*
G36*
Y881380D02*
X621919D01*
Y875030D01*
X627888D01*
Y881380D01*
D02*
G37*
G36*
X372110Y844931D02*
X365760D01*
Y838962D01*
X372110D01*
Y844931D01*
D02*
G37*
G36*
X363220D02*
X356870D01*
Y838962D01*
X363220D01*
Y844931D01*
D02*
G37*
G36*
X372110Y836422D02*
X365760D01*
Y830453D01*
X372110D01*
Y836422D01*
D02*
G37*
G36*
X363220D02*
X356870D01*
Y830453D01*
X363220D01*
Y836422D01*
D02*
G37*
G36*
X524510Y814959D02*
X518160D01*
Y808990D01*
X524510D01*
Y814959D01*
D02*
G37*
G36*
X504190D02*
X497840D01*
Y808990D01*
X504190D01*
Y814959D01*
D02*
G37*
G36*
X515620D02*
X509270D01*
Y808990D01*
X515620D01*
Y814959D01*
D02*
G37*
G36*
X495300D02*
X488950D01*
Y808990D01*
X495300D01*
Y814959D01*
D02*
G37*
G36*
X524510Y806450D02*
X518160D01*
Y800481D01*
X524510D01*
Y806450D01*
D02*
G37*
G36*
X515620D02*
X509270D01*
Y800481D01*
X515620D01*
Y806450D01*
D02*
G37*
G36*
X504190D02*
X497840D01*
Y800481D01*
X504190D01*
Y806450D01*
D02*
G37*
G36*
X495300D02*
X488950D01*
Y800481D01*
X495300D01*
Y806450D01*
D02*
G37*
G36*
X645040Y790090D02*
X636270D01*
Y782320D01*
X645040D01*
Y790090D01*
D02*
G37*
G36*
X633730D02*
X624960D01*
Y782320D01*
X633730D01*
Y790090D01*
D02*
G37*
G36*
X645040Y779780D02*
X636270D01*
Y772010D01*
X645040D01*
Y779780D01*
D02*
G37*
G36*
X482854Y813943D02*
X469646D01*
Y801497D01*
X477211D01*
Y796130D01*
X477211Y796130D01*
X477428Y795040D01*
X478046Y794116D01*
X493896Y778265D01*
Y766246D01*
X511944D01*
Y782294D01*
X497925D01*
X482909Y797310D01*
Y804291D01*
X482909Y804291D01*
X482854Y804566D01*
Y813943D01*
D02*
G37*
G36*
X322580Y724027D02*
X316230D01*
Y718058D01*
X322580D01*
Y724027D01*
D02*
G37*
G36*
Y715518D02*
X316230D01*
Y709549D01*
X322580D01*
Y715518D01*
D02*
G37*
G36*
X306070D02*
X299720D01*
Y709549D01*
X306070D01*
Y715518D01*
D02*
G37*
G36*
X297180D02*
X290830D01*
Y709549D01*
X297180D01*
Y715518D01*
D02*
G37*
G36*
X347266Y554480D02*
X346710D01*
Y537210D01*
X363980D01*
Y537766D01*
X363268Y541348D01*
X361870Y544722D01*
X359841Y547759D01*
X357259Y550341D01*
X354222Y552370D01*
X350848Y553768D01*
X347266Y554480D01*
D02*
G37*
G36*
X344170D02*
X343614D01*
X340032Y553768D01*
X336658Y552370D01*
X333621Y550341D01*
X331039Y547759D01*
X329010Y544722D01*
X327612Y541348D01*
X326900Y537766D01*
Y537210D01*
X344170D01*
Y554480D01*
D02*
G37*
G36*
X363980Y534670D02*
X346710D01*
Y517400D01*
X347266D01*
X350848Y518112D01*
X354222Y519510D01*
X357259Y521539D01*
X359841Y524121D01*
X361870Y527158D01*
X363268Y530532D01*
X363980Y534114D01*
Y534670D01*
D02*
G37*
G36*
X344170D02*
X326900D01*
Y534114D01*
X327612Y530532D01*
X329010Y527158D01*
X331039Y524121D01*
X333621Y521539D01*
X336658Y519510D01*
X340032Y518112D01*
X343614Y517400D01*
X344170D01*
Y534670D01*
D02*
G37*
G36*
X458470Y501269D02*
X452120D01*
Y495300D01*
X458470D01*
Y501269D01*
D02*
G37*
G36*
X449580D02*
X443230D01*
Y495300D01*
X449580D01*
Y501269D01*
D02*
G37*
G36*
X458470Y492760D02*
X452120D01*
Y486791D01*
X458470D01*
Y492760D01*
D02*
G37*
G36*
X449580D02*
X443230D01*
Y486791D01*
X449580D01*
Y492760D01*
D02*
G37*
G36*
X462407Y468630D02*
X456438D01*
Y462280D01*
X462407D01*
Y468630D01*
D02*
G37*
G36*
X453898D02*
X447929D01*
Y462280D01*
X453898D01*
Y468630D01*
D02*
G37*
G36*
X583625Y462788D02*
X577275D01*
Y456819D01*
X583625D01*
Y462788D01*
D02*
G37*
G36*
X574735D02*
X568385D01*
Y456819D01*
X574735D01*
Y462788D01*
D02*
G37*
G36*
X598170Y461160D02*
X589400D01*
Y453390D01*
X598170D01*
Y461160D01*
D02*
G37*
G36*
X462407Y459740D02*
X456438D01*
Y453390D01*
X462407D01*
Y459740D01*
D02*
G37*
G36*
X453898D02*
X447929D01*
Y453390D01*
X453898D01*
Y459740D01*
D02*
G37*
G36*
X583625Y454279D02*
X577275D01*
Y448310D01*
X583625D01*
Y454279D01*
D02*
G37*
G36*
X574735D02*
X568385D01*
Y448310D01*
X574735D01*
Y454279D01*
D02*
G37*
G36*
X609480Y450850D02*
X600710D01*
Y443080D01*
X609480D01*
Y450850D01*
D02*
G37*
G36*
X598170D02*
X589400D01*
Y443080D01*
X598170D01*
Y450850D01*
D02*
G37*
G36*
X496702Y508030D02*
X492100D01*
Y500178D01*
X492455D01*
X494080Y500502D01*
X495458Y501422D01*
X496378Y502800D01*
X496702Y504425D01*
Y508030D01*
D02*
G37*
G36*
X634048Y468052D02*
X631190D01*
Y458470D01*
X640772D01*
Y461328D01*
X640543Y463068D01*
X639871Y464690D01*
X638803Y466083D01*
X637410Y467151D01*
X635788Y467823D01*
X634048Y468052D01*
D02*
G37*
G36*
X730250Y632587D02*
X723900D01*
Y626618D01*
X730250D01*
Y632587D01*
D02*
G37*
%LPD*%
D15*
X602868Y791060D02*
G03*
X599633Y799023I-11048J150D01*
G01*
X700010Y929640D02*
Y940640D01*
Y918640D02*
Y929640D01*
X410330Y717290D02*
X410560Y717520D01*
Y723772D01*
X417830Y731042D01*
Y732790D01*
X420330Y735290D01*
Y748290D01*
X591820Y685800D02*
X600764Y694744D01*
X634275D02*
X642001Y702470D01*
X600764Y694744D02*
X634275D01*
X613638Y660400D02*
X650708Y697470D01*
X673190D01*
X591820Y660400D02*
X613638D01*
X840740Y835891D02*
Y919480D01*
X832866Y927354D02*
Y958864D01*
Y927354D02*
X840740Y919480D01*
X832866Y958864D02*
X835011Y961009D01*
X846469D01*
X816280Y811432D02*
X840740Y835891D01*
X822960Y826770D02*
Y850900D01*
X792385Y781789D02*
X803076Y792480D01*
X792385Y781789D02*
Y796195D01*
X803076Y792480D02*
X821690D01*
X792385Y796195D02*
X822960Y826770D01*
X848614Y963154D02*
Y995671D01*
X832320Y1011965D02*
X848614Y995671D01*
X821690Y852170D02*
X822960Y850900D01*
X781050Y789940D02*
X784551Y793441D01*
Y801370D02*
X797560Y814379D01*
Y850900D01*
X846469Y961009D02*
X848614Y963154D01*
X784551Y793441D02*
Y801370D01*
X781050Y785160D02*
Y789940D01*
X766250Y752470D02*
X779317Y765538D01*
X743190Y752470D02*
X766250D01*
X400544Y696214D02*
X406824D01*
X415100Y704491D01*
X397635Y693305D02*
X400544Y696214D01*
X415100Y704491D02*
Y717060D01*
X397635Y691929D02*
Y693305D01*
X395995Y690290D02*
X397635Y691929D01*
X389128Y687070D02*
X392348Y690290D01*
X395995D01*
X743190Y643650D02*
Y671915D01*
X751840Y631618D02*
Y635000D01*
X743190Y643650D02*
X751840Y635000D01*
X727710Y650000D02*
Y657424D01*
X728190Y657904D01*
X732990Y655520D02*
Y667270D01*
X732790Y655320D02*
X732990Y655520D01*
X727710Y650000D02*
X730504Y647206D01*
X728190Y657904D02*
Y667470D01*
X732990Y667270D02*
X733190Y667470D01*
X751840Y631618D02*
X835660Y547798D01*
X1043587Y842645D02*
X1047750Y838482D01*
Y830580D02*
Y838482D01*
X730504Y642366D02*
Y647206D01*
X734060Y635000D02*
Y638810D01*
Y635000D02*
X774700Y594360D01*
X730504Y642366D02*
X734060Y638810D01*
X774700Y547370D02*
Y594360D01*
X674370Y915670D02*
Y927989D01*
X690880Y852170D02*
Y899160D01*
X674370Y915670D02*
X690880Y899160D01*
X362190Y736600D02*
X394909D01*
X365633Y714248D02*
Y719125D01*
X363271Y721487D02*
X365633Y719125D01*
X360426Y723124D02*
X362063Y721487D01*
X360426Y723124D02*
Y734836D01*
X402100Y735520D02*
X402330Y735290D01*
X395989Y735520D02*
X402100D01*
X394909Y736600D02*
X395989Y735520D01*
X360426Y734836D02*
X362190Y736600D01*
X365633Y714248D02*
X367411Y712470D01*
X362063Y721487D02*
X363271D01*
X753110Y811530D02*
Y841747D01*
X756539Y845175D01*
X749491Y807911D02*
X751994Y805407D01*
X764540Y876300D02*
Y925068D01*
X756539Y868299D02*
X764540Y876300D01*
X749300Y808101D02*
X749491Y807911D01*
X756539Y845175D02*
Y868299D01*
X758190Y779998D02*
Y803910D01*
X756693Y805407D02*
X758190Y803910D01*
X751994Y805407D02*
X756693D01*
X749681Y808101D02*
X753110Y811530D01*
X649405Y811698D02*
Y817616D01*
Y811698D02*
X698190Y762913D01*
X642387Y824634D02*
X649405Y817616D01*
X640080Y837580D02*
X656590Y821070D01*
Y810260D02*
Y821070D01*
Y810260D02*
X703190Y763660D01*
X687936Y757169D02*
X688190Y756915D01*
X687533Y757169D02*
X687936D01*
X638171Y799880D02*
X644822D01*
X688190Y752470D02*
Y756915D01*
X644822Y799880D02*
X687533Y757169D01*
X635000Y803050D02*
X638171Y799880D01*
X619760Y807658D02*
X621248Y806170D01*
X603631Y837029D02*
X619760Y820900D01*
X621248Y806170D02*
X634490D01*
X619760Y807658D02*
Y820900D01*
X634490Y806170D02*
X635955Y804705D01*
X688190Y752470D02*
X688444Y752216D01*
X603631Y837029D02*
Y859165D01*
X622533Y769646D02*
X655720Y737470D01*
X620896Y771283D02*
X622533Y769646D01*
X602868Y790322D02*
X620896Y771283D01*
X602868Y790322D02*
Y791060D01*
X597041Y801615D02*
X599633Y799023D01*
X597041Y802365D02*
X597041Y801615D01*
X656772Y737470D02*
X673190D01*
X597041Y802365D02*
Y811389D01*
X655720Y737470D02*
X656772Y737470D01*
X591820Y816610D02*
X597041Y811389D01*
X753491Y682724D02*
X757936D01*
X751064Y722470D02*
X758190D01*
X1002411Y458851D02*
Y594863D01*
X992886Y604389D02*
X1002411Y594863D01*
X1000760Y457200D02*
X1002411Y458851D01*
X994410Y570230D02*
X994918Y570738D01*
Y592582D01*
X643532Y516890D02*
X643890D01*
X634679Y521021D02*
X639400D01*
X643532Y516890D01*
X630936Y524764D02*
X634679Y521021D01*
X630936Y524764D02*
Y619506D01*
X655320Y457200D02*
Y482600D01*
X643890Y494030D02*
X655320Y482600D01*
X821690Y792480D02*
X884617Y729553D01*
Y718123D02*
Y729553D01*
X473710Y608330D02*
X496160D01*
X497430Y609600D01*
X703190Y584590D02*
X704850Y582930D01*
X702564Y614442D02*
Y652256D01*
X703190Y584590D02*
Y613816D01*
X702564Y652256D02*
X703190Y652882D01*
X702564Y614442D02*
X703190Y613816D01*
Y652882D02*
Y667470D01*
X654050Y582930D02*
Y606791D01*
X693190Y645931D02*
Y667470D01*
X654050Y606791D02*
X693190Y645931D01*
X727577Y585603D02*
X730250Y582930D01*
X721227Y585603D02*
X727577D01*
X708190Y598640D02*
X721227Y585603D01*
X706628Y616125D02*
Y650573D01*
X708190Y598640D02*
Y614563D01*
X706628Y650573D02*
X708190Y652135D01*
X706628Y616125D02*
X708190Y614563D01*
Y652135D02*
Y667470D01*
X679450Y582930D02*
Y615498D01*
X698190Y634238D02*
Y667470D01*
X679450Y615498D02*
X698190Y634238D01*
X755650Y582930D02*
Y584345D01*
X741825Y598170D02*
X755650Y584345D01*
X713190Y601224D02*
X716244Y598170D01*
X741825D01*
X710692Y617808D02*
X713190Y615310D01*
Y601224D02*
Y615310D01*
Y651388D02*
Y667470D01*
X710692Y617808D02*
Y648890D01*
X713190Y651388D01*
X790352Y695960D02*
X815340D01*
X783842Y702470D02*
X790352Y695960D01*
X775136Y702310D02*
X779344D01*
X758190Y702470D02*
X774976D01*
X779344Y702310D02*
X779504Y702470D01*
X774976D02*
X775136Y702310D01*
X779504Y702470D02*
X783842D01*
X758190Y692470D02*
X768030D01*
X815340Y645160D01*
X811919Y717939D02*
X815340Y721360D01*
X777629Y717939D02*
X811919D01*
X777240Y717550D02*
X777629Y717939D01*
X777200Y707430D02*
X777240Y707390D01*
X758230Y707430D02*
X777200D01*
X758190Y707470D02*
X758230Y707430D01*
X800552Y670560D02*
X815340D01*
X773642Y697470D02*
X800552Y670560D01*
X758190Y697470D02*
X773642D01*
X758190Y687470D02*
X758444Y687216D01*
X764888D01*
X800100Y627380D02*
X805539Y621941D01*
X813159D02*
X815340Y619760D01*
X805539Y621941D02*
X813159D01*
X800100Y627380D02*
Y638810D01*
X779780Y659130D02*
X800100Y638810D01*
X764888Y687216D02*
X779780Y672324D01*
Y659130D02*
Y672324D01*
X823849Y710311D02*
X830580Y703580D01*
X806187Y712470D02*
X808345Y710311D01*
X823849D01*
X669290Y541020D02*
X712698D01*
X635000Y609835D02*
X688190Y663025D01*
X635000Y575310D02*
X669290Y541020D01*
X630936Y619506D02*
X673100Y661670D01*
X635000Y575310D02*
Y609835D01*
X712698Y541020D02*
X720318Y548640D01*
X744220D01*
X830580Y607060D02*
X934720Y502920D01*
Y459740D02*
X937260Y457200D01*
X934720Y459740D02*
Y502920D01*
X830580Y607060D02*
Y703580D01*
X846418Y733848D02*
X931900Y648366D01*
X846418Y733848D02*
Y751242D01*
X825917Y771743D02*
X846418Y751242D01*
X815340Y774700D02*
X818297Y771743D01*
X825917D01*
X797996Y794584D02*
X814843Y811432D01*
X816280D01*
X769996Y748406D02*
X783381Y761791D01*
Y765601D01*
X779317Y765538D02*
Y768721D01*
X783381Y765601D02*
X795020Y777240D01*
X779317Y768721D02*
X792385Y781789D01*
X773739Y775009D02*
Y777849D01*
X745086Y765810D02*
X764540D01*
X744418Y770890D02*
X763873D01*
X769675Y776692D02*
Y808993D01*
X764540Y765810D02*
X773739Y775009D01*
X763873Y770890D02*
X769675Y776692D01*
Y808993D02*
X770890Y810208D01*
Y852170D01*
X773739Y777849D02*
X781050Y785160D01*
X950130Y641610D02*
Y652610D01*
X884617Y718123D02*
X950130Y652610D01*
X1032786Y608606D02*
Y617496D01*
X1037590Y622300D01*
X1031240Y607060D02*
X1032786Y608606D01*
X1037590Y622300D02*
Y639070D01*
X1040130Y641610D01*
X744220Y457200D02*
Y495208D01*
X741371Y498057D02*
Y502086D01*
Y498057D02*
X744220Y495208D01*
X738378Y505079D02*
X741371Y502086D01*
X738378Y505460D02*
X740192Y507274D01*
Y512862D01*
X774700Y547370D01*
X727329Y515239D02*
X766699Y554609D01*
X727329Y506948D02*
Y515239D01*
X766699Y554609D02*
Y587507D01*
X718820Y505460D02*
X725841D01*
X727329Y506948D01*
X769231Y517386D02*
Y522851D01*
X765810Y513964D02*
X769231Y517386D01*
X765810Y511424D02*
Y513964D01*
X769231Y522851D02*
X769620Y523240D01*
X914400Y854710D02*
X935130Y833980D01*
Y816610D02*
Y833980D01*
X939800Y854710D02*
X950130Y844380D01*
Y816610D02*
Y844380D01*
X965200Y816680D02*
Y854710D01*
X965130Y816610D02*
X965200Y816680D01*
X980130Y844240D02*
X990600Y854710D01*
X980130Y816610D02*
Y844240D01*
X1016000Y854710D02*
X1026160Y844550D01*
Y836930D02*
Y844550D01*
X1009023Y836303D02*
X1009412Y836692D01*
X1009023Y833503D02*
Y836303D01*
X995130Y819610D02*
X1009023Y833503D01*
X995130Y816610D02*
Y819610D01*
X1041400Y854710D02*
X1043587Y852523D01*
Y842645D02*
Y852523D01*
X1014730Y830030D02*
Y830580D01*
X1013360Y828660D02*
X1014730Y830030D01*
X1013360Y819840D02*
Y828660D01*
X1010130Y816610D02*
X1013360Y819840D01*
X938530Y896112D02*
X938911D01*
X965200Y869823D01*
Y854710D02*
Y869823D01*
X906540Y920710D02*
Y979210D01*
Y919460D02*
Y920710D01*
X893106Y906026D02*
X906540Y919460D01*
X889389Y906026D02*
X893106D01*
X889000Y905637D02*
X889389Y906026D01*
X889000Y894080D02*
X899160Y883920D01*
X906780D01*
X907161D02*
X936371Y854710D01*
X939800D01*
X690880Y852170D02*
X713190Y829860D01*
Y752470D02*
Y829860D01*
X716280Y852170D02*
X717936Y850514D01*
Y752724D02*
Y850514D01*
Y752724D02*
X718190Y752470D01*
X723190D02*
Y829870D01*
X745490Y852170D01*
X725170Y880999D02*
X725551D01*
X742315Y864235D01*
Y855345D02*
Y864235D01*
Y855345D02*
X745490Y852170D01*
X704850Y863600D02*
X716280Y852170D01*
X704850Y863600D02*
Y880999D01*
X721216Y946434D02*
X727010Y940640D01*
X693731Y946434D02*
X721216D01*
X691288Y943991D02*
X693731Y946434D01*
X727010Y940640D02*
X730010D01*
X708660Y900430D02*
Y911290D01*
X727010Y929640D01*
X674370Y943991D02*
X691288D01*
X644398Y930910D02*
Y947420D01*
X751492Y682724D02*
X753491D01*
X711746Y722470D02*
X751064D01*
X644398Y930910D02*
X645160Y930148D01*
Y916940D02*
Y930148D01*
Y900430D02*
Y916940D01*
Y882650D02*
Y900430D01*
X727010Y929640D02*
X730010D01*
X705231Y897001D02*
X708660Y900430D01*
X704850Y897001D02*
X705231D01*
X727134Y918640D02*
X730010D01*
X725170Y916675D02*
X727134Y918640D01*
X725170Y897001D02*
Y916675D01*
X708190Y752470D02*
Y766280D01*
X665480Y808990D02*
X708190Y766280D01*
X698190Y752470D02*
Y762913D01*
X703190Y752470D02*
Y763660D01*
X665480Y808990D02*
Y852170D01*
X640080Y837580D02*
Y852170D01*
X614680D02*
X642216Y824634D01*
X642387D01*
X645160Y882269D02*
Y882650D01*
X631571Y868680D02*
X645160Y882269D01*
X613147Y868680D02*
X631571D01*
X603631Y859165D02*
X613147Y868680D01*
X756702Y778510D02*
X758190Y779998D01*
X744451Y778510D02*
X756702D01*
X728190Y762249D02*
X744451Y778510D01*
X728190Y752470D02*
Y762249D01*
X733444Y759916D02*
X744418Y770890D01*
X733444Y752724D02*
Y759916D01*
X733190Y752470D02*
X733444Y752724D01*
X796290Y852170D02*
X797560Y850900D01*
X738444Y759168D02*
X745086Y765810D01*
X738444Y752724D02*
Y759168D01*
X738190Y752470D02*
X738444Y752724D01*
X832320Y1011965D02*
Y1050290D01*
X757682Y748406D02*
X769996D01*
X749427Y740151D02*
X757682Y748406D01*
X749427Y729789D02*
Y740151D01*
Y729789D02*
X751492Y727724D01*
X757936D01*
X758190Y727470D01*
X688190Y663025D02*
Y667470D01*
X765810Y511424D02*
X831083Y446151D01*
X840237D01*
X841126Y447040D01*
X850900D01*
X861060Y457200D01*
X591820Y635000D02*
X605938D01*
X658408Y687470D02*
X673190D01*
X605938Y635000D02*
X658408Y687470D01*
X591820Y609600D02*
X664690Y682470D01*
X673190D01*
Y692470D02*
X730935D01*
X742295Y681109D01*
X750570Y660400D02*
X751840D01*
X911860Y500380D01*
Y457200D02*
Y500380D01*
X747388Y676113D02*
X749547D01*
X743190Y671915D02*
X747388Y676113D01*
X753491Y682216D02*
X753745Y682470D01*
X753491Y680057D02*
Y682216D01*
X757936Y682724D02*
X758190Y682470D01*
X749547Y676113D02*
X753491Y680057D01*
X835660Y457200D02*
Y547798D01*
X1010130Y631670D02*
Y641610D01*
X1002030Y623570D02*
X1010130Y631670D01*
X995130Y641610D02*
X996950Y639790D01*
Y629920D02*
Y639790D01*
X955040Y621030D02*
X962660Y628650D01*
X955040Y607060D02*
Y621030D01*
X968360Y551680D02*
Y638380D01*
X992886Y604389D02*
Y625854D01*
X980130Y638610D02*
X992886Y625854D01*
X980440Y619210D02*
X984250Y623020D01*
Y623570D01*
X980440Y607060D02*
Y619210D01*
X1005840Y607060D02*
Y619320D01*
X1025130Y638610D01*
X980130D02*
Y641610D01*
X980440Y607060D02*
X994918Y592582D01*
X968360Y551680D02*
X975360Y544680D01*
Y457200D02*
Y544680D01*
X965130Y641610D02*
X968360Y638380D01*
X1025130Y638610D02*
Y641610D01*
X920130Y638610D02*
Y641610D01*
Y638610D02*
X929640Y629100D01*
Y607060D02*
Y629100D01*
X931900Y644840D02*
X935130Y641610D01*
X931900Y644840D02*
Y648366D01*
X758190Y712470D02*
X806187D01*
X778110Y737470D02*
X815340Y774700D01*
X758190Y737470D02*
X778110D01*
X798510Y732470D02*
X815340Y749300D01*
X758190Y732470D02*
X798510D01*
X688444Y745772D02*
Y752216D01*
Y745772D02*
X711746Y722470D01*
X753745Y682470D02*
X758190D01*
X749427Y720151D02*
X751064Y721788D01*
X749427Y684789D02*
Y720151D01*
Y684789D02*
X751492Y682724D01*
X750706Y603499D02*
X766699Y587507D01*
X718820Y457200D02*
Y505460D01*
X730749Y603499D02*
X750706D01*
X714756Y619492D02*
X730749Y603499D01*
X714756Y619492D02*
Y647206D01*
X718190Y650640D01*
Y667470D01*
X723190Y663025D02*
Y667470D01*
X722630Y662465D02*
X723190Y663025D01*
X722630Y641350D02*
Y662465D01*
X669671Y446151D02*
X680720Y457200D01*
X622925Y446151D02*
X669671D01*
X614298Y454779D02*
X622925Y446151D01*
X614298Y454779D02*
Y460262D01*
X600440Y474120D02*
X614298Y460262D01*
X599440Y474120D02*
X600440D01*
X528320Y486918D02*
X528701D01*
X532130Y483489D01*
Y480681D02*
Y483489D01*
Y480681D02*
X549261Y463550D01*
X560719D01*
X562864Y461405D01*
Y449693D02*
Y461405D01*
X561227Y448056D02*
X562864Y449693D01*
X498393Y448056D02*
X561227D01*
X473591Y472858D02*
X498393Y448056D01*
X473591Y472858D02*
Y479539D01*
X471830Y481300D02*
X473591Y479539D01*
X490830Y481300D02*
Y484358D01*
X493771Y487299D01*
X509270D01*
X596871Y471551D02*
X599440Y474120D01*
X576005Y471551D02*
X596871D01*
X554990D02*
X576005D01*
X471830Y461670D02*
Y481300D01*
X471170Y461010D02*
X471830Y461670D01*
X508889Y503301D02*
X509270D01*
X505460Y506730D02*
X508889Y503301D01*
X505460Y506730D02*
Y507419D01*
X494285Y518594D02*
X505460Y507419D01*
X487374Y518594D02*
X494285D01*
X481330Y512550D02*
X487374Y518594D01*
X481330Y509300D02*
Y512550D01*
Y535940D02*
X482600Y537210D01*
X481330Y509300D02*
Y535940D01*
X501920Y752270D02*
X502920D01*
X484940Y735290D02*
X501920Y752270D01*
X433330Y735290D02*
X484940D01*
X468900Y752270D02*
X469900D01*
X456920Y740290D02*
X468900Y752270D01*
X433330Y740290D02*
X456920D01*
X501920Y774270D02*
X502920D01*
X480060Y796130D02*
X501920Y774270D01*
X480060Y796130D02*
Y804291D01*
X476631Y807720D02*
X480060Y804291D01*
X476250Y807720D02*
X476631D01*
X468900Y774270D02*
X469900D01*
X455930Y787240D02*
X468900Y774270D01*
X455930Y787240D02*
Y806958D01*
X496570Y823722D02*
X516890D01*
X476250D02*
X496570D01*
X475488Y822960D02*
X476250Y823722D01*
X455930Y822960D02*
X475488D01*
X455549D02*
X455930D01*
X416277Y783688D02*
X455549Y822960D01*
X416277Y779497D02*
Y783688D01*
X415888Y779108D02*
X416277Y779497D01*
X392333Y746463D02*
Y759363D01*
X391160Y745290D02*
X392333Y746463D01*
X391160Y745290D02*
X405330D01*
X407361Y751520D02*
X410100D01*
X381896Y776985D02*
X407361Y751520D01*
X410100D02*
X410330Y751290D01*
X328805Y801020D02*
X334567D01*
X328805Y791480D02*
X334567D01*
X337119Y794032D02*
Y798468D01*
X334567Y801020D02*
X337119Y798468D01*
X334567Y791480D02*
X337119Y794032D01*
X328575Y791250D02*
X328805Y791480D01*
X359940Y799440D02*
X363190D01*
X351790Y791290D02*
X359940Y799440D01*
X351790Y789857D02*
Y791290D01*
X344170Y789857D02*
X351790D01*
X344170D02*
Y791250D01*
X335280D02*
X344170D01*
X334567D02*
X335280D01*
X328575D02*
X334567D01*
X328575Y801250D02*
X328805Y801020D01*
X317575Y750550D02*
X322825D01*
X317830Y836950D02*
X322825D01*
X294386Y813506D02*
X317830Y836950D01*
X294386Y747889D02*
Y813506D01*
X322825Y733815D02*
Y750550D01*
Y733815D02*
X323850Y732790D01*
X310370Y730979D02*
Y743345D01*
X317575Y750550D01*
X304687Y725297D02*
X310370Y730979D01*
X281025Y836950D02*
X322825D01*
X281025Y750550D02*
X281309D01*
X284755Y747104D01*
X290576Y726934D02*
X292213Y725297D01*
X290576Y744079D02*
X294386Y747889D01*
X292213Y725297D02*
X304687D01*
X290576Y726934D02*
Y744079D01*
X284755Y732755D02*
Y747104D01*
Y732755D02*
X290576Y726934D01*
X344170Y825500D02*
X344551Y825119D01*
X361061D01*
X364490Y821690D01*
X339810Y807720D02*
X340360D01*
X328575Y806250D02*
X338340D01*
X339810Y807720D01*
X328345Y776020D02*
X328575Y776250D01*
X320448Y776020D02*
X328345D01*
X298450Y754023D02*
X320448Y776020D01*
X320031Y793468D02*
X322583Y796020D01*
X320031Y789032D02*
X323270Y785793D01*
X354395D01*
X320031Y789032D02*
Y793468D01*
X298450Y732790D02*
Y754023D01*
X368300Y744982D02*
X368608Y745290D01*
X391160D01*
X405100Y745060D02*
X405330Y745290D01*
X405100Y740520D02*
Y745060D01*
X404870Y740290D02*
X405100Y740520D01*
X402330Y740290D02*
X404870D01*
X392230Y730290D02*
X402330D01*
X391047Y729107D02*
X392230Y730290D01*
X378573Y729107D02*
X391047D01*
X378192Y729488D02*
X378573Y729107D01*
X377684Y728980D02*
X378192Y729488D01*
X442112Y703961D02*
X617601D01*
X440624Y705449D02*
X442112Y703961D01*
X440624Y705449D02*
Y727508D01*
X437801Y729584D02*
X438548D01*
X437325Y730060D02*
X437801Y729584D01*
X433560Y730060D02*
X437325D01*
X433330Y730290D02*
X433560Y730060D01*
X438548Y729584D02*
X440624Y727508D01*
X433330Y701385D02*
Y716339D01*
X434624Y717633D02*
Y725060D01*
X433330Y716339D02*
X434624Y717633D01*
X434818Y699897D02*
X620739D01*
X434394Y725290D02*
X434624Y725060D01*
X433330Y725290D02*
X434394D01*
X433330Y701385D02*
X434818Y699897D01*
X620739D02*
X633312Y712470D01*
X673150Y707430D02*
X673190Y707470D01*
X637580Y707430D02*
X673150D01*
X637540Y707390D02*
X637580Y707430D01*
X617601Y703961D02*
X622300Y708660D01*
X633312Y712470D02*
X673190D01*
X642001Y702470D02*
X673190D01*
X594026Y717216D02*
X672936D01*
X591820Y715010D02*
X594026Y717216D01*
X609760Y722470D02*
X673190D01*
X672936Y717216D02*
X673190Y717470D01*
X591820Y740410D02*
X609760Y722470D01*
X591820Y765810D02*
X630160Y727470D01*
X673190D01*
X591820Y791210D02*
X650560Y732470D01*
X673190D01*
X360920Y687070D02*
X369120D01*
X369375Y686816D02*
X374846D01*
X375099Y687070D02*
X389128D01*
X374846Y686816D02*
X375099Y687070D01*
X369120D02*
X369375Y686816D01*
X341757Y706233D02*
X360920Y687070D01*
X368300Y728980D02*
X377684D01*
X350139Y745490D02*
X350520D01*
X337693Y733044D02*
X350139Y745490D01*
X337693Y716901D02*
Y733044D01*
X331470Y710678D02*
X337693Y716901D01*
X331470Y695452D02*
Y710678D01*
X367792Y745490D02*
X368300Y744982D01*
X350520Y745490D02*
X367792D01*
X415100Y717060D02*
X415330Y717290D01*
X350139Y729488D02*
X350520D01*
X341757Y721106D02*
X350139Y729488D01*
X341757Y706233D02*
Y721106D01*
X410330Y748290D02*
Y751290D01*
X381896Y776985D02*
Y793397D01*
X354395Y785793D02*
X359748Y780440D01*
X363190D01*
X409188Y765692D02*
X415290Y759590D01*
X407700Y765692D02*
X409188D01*
X407700Y764548D02*
Y765692D01*
X400080Y764548D02*
X407700D01*
X400080D02*
Y774800D01*
X394440Y780440D02*
X400080Y774800D01*
X391190Y780440D02*
X394440D01*
X415290Y759590D02*
X415330Y759550D01*
X381896Y793397D02*
X387939Y799440D01*
X391190D01*
X415330Y748290D02*
Y759550D01*
X322583Y796020D02*
X330028D01*
D16*
X501650Y609600D02*
D03*
X523650D02*
D03*
X999490Y887730D02*
D03*
X1021490D02*
D03*
D17*
X722630Y625348D02*
D03*
X749300Y792099D02*
D03*
X1008380Y965962D02*
D03*
X516890Y807720D02*
D03*
X496570D02*
D03*
X364490Y837692D02*
D03*
X323850Y716788D02*
D03*
X298450D02*
D03*
X523240Y538480D02*
D03*
X450850Y494030D02*
D03*
X576005Y455549D02*
D03*
X840740Y953008D02*
D03*
Y969010D02*
D03*
X722630Y641350D02*
D03*
X749300Y808101D02*
D03*
X674370Y927989D02*
D03*
Y943991D02*
D03*
X725170Y880999D02*
D03*
Y897001D02*
D03*
X704850Y880999D02*
D03*
Y897001D02*
D03*
X764540Y925068D02*
D03*
Y941070D02*
D03*
X906780Y899922D02*
D03*
Y883920D02*
D03*
X938530Y912114D02*
D03*
Y896112D02*
D03*
X1008380Y949960D02*
D03*
X516890Y823722D02*
D03*
X496570D02*
D03*
X476250Y807720D02*
D03*
Y823722D02*
D03*
X455930Y806958D02*
D03*
Y822960D02*
D03*
X364490Y821690D02*
D03*
X323850Y732790D02*
D03*
X298450D02*
D03*
X331470Y695452D02*
D03*
Y679450D02*
D03*
X523240Y554482D02*
D03*
X450850Y510032D02*
D03*
X509270Y503301D02*
D03*
Y487299D02*
D03*
X528320Y502920D02*
D03*
Y486918D02*
D03*
X554990Y471551D02*
D03*
Y455549D02*
D03*
X576005Y471551D02*
D03*
X384810Y720598D02*
D03*
X350520Y745490D02*
D03*
X368300Y744982D02*
D03*
X350520Y729488D02*
D03*
X368300Y728980D02*
D03*
X384810Y736600D02*
D03*
D18*
X328575Y761750D02*
D03*
Y825750D02*
D03*
Y769750D02*
D03*
Y817750D02*
D03*
D19*
X628396Y930910D02*
D03*
X629158Y916940D02*
D03*
Y900430D02*
D03*
Y882650D02*
D03*
X353060Y712470D02*
D03*
X405130Y687070D02*
D03*
X455168Y461010D02*
D03*
X644398Y947420D02*
D03*
X628396D02*
D03*
X644398Y930910D02*
D03*
X645160Y916940D02*
D03*
Y900430D02*
D03*
Y882650D02*
D03*
X1037590Y906780D02*
D03*
X1021588D02*
D03*
X1010412Y570230D02*
D03*
X994410D02*
D03*
X369062Y712470D02*
D03*
X389128Y687070D02*
D03*
X473710Y608330D02*
D03*
X457708D02*
D03*
X471170Y461010D02*
D03*
X738378Y505460D02*
D03*
X754380D02*
D03*
X718820D02*
D03*
X702818D02*
D03*
D20*
X700010Y940640D02*
D03*
Y929640D02*
D03*
Y918640D02*
D03*
X730010D02*
D03*
Y929640D02*
D03*
Y940640D02*
D03*
D21*
X976630Y892810D02*
D03*
X635000Y781050D02*
D03*
X599440Y452120D02*
D03*
X502920Y752270D02*
D03*
Y774270D02*
D03*
X469900Y752270D02*
D03*
Y774270D02*
D03*
X976630Y914810D02*
D03*
X635000Y803050D02*
D03*
X599440Y474120D02*
D03*
D22*
X758190Y717470D02*
D03*
X673190Y682470D02*
D03*
Y687470D02*
D03*
Y692470D02*
D03*
Y697470D02*
D03*
Y702470D02*
D03*
Y717470D02*
D03*
Y722470D02*
D03*
Y727470D02*
D03*
Y732470D02*
D03*
Y737470D02*
D03*
X758190D02*
D03*
Y732470D02*
D03*
Y727470D02*
D03*
Y722470D02*
D03*
Y712470D02*
D03*
Y707470D02*
D03*
Y702470D02*
D03*
Y697470D02*
D03*
Y692470D02*
D03*
Y687470D02*
D03*
Y682470D02*
D03*
X673190Y712470D02*
D03*
Y707470D02*
D03*
D23*
X693190Y752470D02*
D03*
X738190Y667470D02*
D03*
X743190D02*
D03*
X733190D02*
D03*
X728190D02*
D03*
X723190D02*
D03*
X718190D02*
D03*
X713190D02*
D03*
X708190D02*
D03*
X703190D02*
D03*
X698190D02*
D03*
X693190D02*
D03*
X688190D02*
D03*
Y752470D02*
D03*
X698190D02*
D03*
X703190D02*
D03*
X708190D02*
D03*
X713190D02*
D03*
X718190D02*
D03*
X723190D02*
D03*
X728190D02*
D03*
X733190D02*
D03*
X738190D02*
D03*
X743190D02*
D03*
D24*
X876540Y979210D02*
D03*
Y920710D02*
D03*
X906540Y979210D02*
D03*
Y920710D02*
D03*
D25*
X420330Y748290D02*
D03*
X410330Y717290D02*
D03*
X425330Y748290D02*
D03*
X415330D02*
D03*
X410330D02*
D03*
X420330Y717290D02*
D03*
X425330D02*
D03*
X415330D02*
D03*
D26*
X417830Y732790D02*
D03*
D27*
X490830Y509300D02*
D03*
Y481300D02*
D03*
X481330Y509300D02*
D03*
X471830Y481300D02*
D03*
X481332D02*
D03*
X471830Y509300D02*
D03*
D28*
X363190Y789940D02*
D03*
Y799440D02*
D03*
X391190Y789942D02*
D03*
X363190Y780440D02*
D03*
X391190D02*
D03*
Y799440D02*
D03*
D29*
X716890Y978560D02*
D03*
X707390Y997560D02*
D03*
X697890Y978560D02*
D03*
D30*
X920130Y816610D02*
D03*
X1040130Y641610D02*
D03*
X1025130D02*
D03*
X1010130D02*
D03*
X995130D02*
D03*
X980130D02*
D03*
X965130D02*
D03*
X950130D02*
D03*
X935130D02*
D03*
X920130D02*
D03*
X935130Y816610D02*
D03*
X950130D02*
D03*
X965130D02*
D03*
X980130D02*
D03*
X995130D02*
D03*
X1010130D02*
D03*
X1025130D02*
D03*
X1040130D02*
D03*
D31*
X978130Y719510D02*
D03*
Y708510D02*
D03*
Y730510D02*
D03*
X989130D02*
D03*
Y719510D02*
D03*
Y708510D02*
D03*
X967130D02*
D03*
Y719510D02*
D03*
Y730510D02*
D03*
D32*
X328575Y811250D02*
D03*
Y806250D02*
D03*
Y801250D02*
D03*
Y776250D02*
D03*
Y781250D02*
D03*
Y786250D02*
D03*
Y796250D02*
D03*
Y791250D02*
D03*
D33*
X608330Y1021590D02*
D03*
Y1053590D02*
D03*
D34*
X402330Y725290D02*
D03*
Y730290D02*
D03*
X433330Y740290D02*
D03*
Y735290D02*
D03*
Y730290D02*
D03*
Y725290D02*
D03*
X402330Y735290D02*
D03*
Y740290D02*
D03*
D35*
X430330Y745290D02*
D03*
X405330Y720290D02*
D03*
Y745290D02*
D03*
D36*
X430330Y720290D02*
D03*
D37*
X483668Y579710D02*
D03*
X482600Y537210D02*
D03*
D66*
X996950Y1037590D02*
D03*
X345440Y535940D02*
D03*
D74*
X845439Y936323D02*
Y941224D01*
X843915Y942748D02*
Y950214D01*
X841121Y953008D02*
X843915Y950214D01*
X840740Y953008D02*
X841121D01*
X843915Y942748D02*
X845439Y941224D01*
Y936323D02*
X881840Y899922D01*
X1010412Y570230D02*
Y570611D01*
X1027614Y587813D01*
X1028516D01*
X1046480Y605776D01*
Y626110D01*
X976630Y914810D02*
X983840Y922020D01*
X984840D02*
X1035358D01*
X983840D02*
X984840D01*
X1005205Y942385D01*
X1029716Y849870D02*
Y865886D01*
X1037590Y873760D01*
Y906780D01*
X1035358Y922020D02*
X1037590Y919788D01*
Y906780D02*
Y919788D01*
X1040130Y816610D02*
Y839456D01*
X1004316Y849870D02*
X1024361Y829825D01*
X1021490Y886730D02*
Y887730D01*
X1004316Y869556D02*
X1021490Y886730D01*
X1004316Y849870D02*
Y869556D01*
X1024361Y817379D02*
Y829825D01*
Y817379D02*
X1025130Y816610D01*
X1029716Y849870D02*
X1040130Y839456D01*
Y662940D02*
Y816610D01*
X1021490Y887730D02*
X1021588Y887828D01*
Y906780D01*
X1007999Y949960D02*
X1008380D01*
X1005205Y947166D02*
X1007999Y949960D01*
X1005205Y942385D02*
Y947166D01*
X973934Y912114D02*
X976630Y914810D01*
X938530Y912114D02*
X973934D01*
X881840Y899922D02*
X906780D01*
X938149Y912114D02*
X938530D01*
X925957Y899922D02*
X938149Y912114D01*
X906780Y899922D02*
X925957D01*
X1040130Y662940D02*
X1046480Y656590D01*
D75*
X383540Y704850D02*
Y719709D01*
X375920Y697230D02*
X383540Y704850D01*
X384429Y720598D02*
X385191D01*
X571500Y725170D02*
Y894080D01*
X698500Y446424D02*
X702964Y441960D01*
X698500Y446424D02*
Y500761D01*
X702964Y441960D02*
X753719D01*
X768959Y457200D01*
X702818Y505079D02*
Y505460D01*
X698500Y500761D02*
X702818Y505079D01*
X528701Y502920D02*
X700659D01*
X438150Y522351D02*
Y600710D01*
X373380Y665480D02*
X438150Y600710D01*
X623570Y946150D02*
X627507D01*
X571500Y894080D02*
X623570Y946150D01*
X628396Y947039D02*
Y947420D01*
X627507Y946150D02*
X628396Y947039D01*
X744512Y969010D02*
X840740D01*
X697890Y975680D02*
Y978560D01*
X697080Y974870D02*
X697890Y975680D01*
X694200Y974870D02*
X697080D01*
X691992Y972662D02*
X694200Y974870D01*
X676336Y972662D02*
X691992D01*
X698500Y953770D02*
X699498D01*
X699770Y954042D01*
X706120D01*
X727438D01*
X732506Y948974D01*
X737341D01*
X741344Y944971D01*
Y941070D02*
Y944971D01*
Y941070D02*
X764540D01*
X642842Y963186D02*
X738688D01*
X744512Y969010D01*
X634365Y954709D02*
X642842Y963186D01*
X634365Y953770D02*
Y954709D01*
X628396Y947801D02*
X634365Y953770D01*
X528320Y502920D02*
X528701D01*
X702818Y505079D02*
Y505460D01*
X768959Y457200D02*
X769620D01*
X754380Y505079D02*
Y505460D01*
Y505079D02*
X769620Y489839D01*
Y457200D02*
Y489839D01*
X481892Y473896D02*
X500239Y455549D01*
X554990D01*
X481332Y481300D02*
X481892Y480740D01*
Y473896D02*
Y480740D01*
X480772Y481860D02*
X481332Y481300D01*
X480772Y481860D02*
Y493517D01*
X472390Y501898D02*
X480772Y493517D01*
X472390Y501898D02*
Y508740D01*
X471830Y509300D02*
X472390Y508740D01*
X471830Y509300D02*
Y509472D01*
X471270Y510032D02*
X471830Y509472D01*
X450850Y510032D02*
X471270D01*
X407479Y776741D02*
Y780493D01*
X398590Y789382D02*
X407479Y780493D01*
Y776741D02*
X416368Y767852D01*
X403024Y794932D02*
Y803948D01*
X398593Y790502D02*
X403024Y794932D01*
X396585Y810387D02*
X403024Y803948D01*
X391750Y790502D02*
X398593D01*
X391190Y789942D02*
X391750Y790502D01*
X449961Y510921D02*
X450850Y510032D01*
X385191Y720598D02*
X394589Y711200D01*
X397510D01*
X438150Y522351D02*
X449580Y510921D01*
X449961D01*
X354788Y811530D02*
X355931Y810387D01*
X396585D01*
X347876Y811530D02*
X354788D01*
X347876Y796716D02*
Y801303D01*
X383540Y719709D02*
X384429Y720598D01*
X341120Y770380D02*
X345440Y774700D01*
X337060Y770380D02*
X341120D01*
X432943Y693293D02*
X571500D01*
X399263Y659613D02*
X432943Y693293D01*
X399263Y659613D02*
X414351Y644525D01*
X523621Y554482D02*
X529590Y548513D01*
X530529D01*
X521970Y555371D02*
Y558408D01*
X522859Y554482D02*
X523240D01*
X521970Y555371D02*
X522859Y554482D01*
X700659Y502920D02*
X702818Y505079D01*
X530529Y548513D02*
X533654Y545388D01*
Y507873D02*
Y545388D01*
X528701Y502920D02*
X533654Y507873D01*
X331470Y679450D02*
X379426D01*
X414351Y644525D02*
X421894D01*
X457708Y608711D01*
X379426Y679450D02*
X399263Y659613D01*
X459238Y588695D02*
X468224Y579710D01*
X483668D02*
X500668D01*
X521970Y558408D01*
X468224Y579710D02*
X483668D01*
X457708Y608330D02*
Y608711D01*
Y608330D02*
X458597Y607441D01*
Y604781D02*
X459238Y604140D01*
Y588695D02*
Y604140D01*
X458597Y604781D02*
Y607441D01*
D76*
X670960Y1051560D02*
X704675Y1017845D01*
Y999345D02*
Y1017845D01*
Y999345D02*
X706460Y997560D01*
X707390D01*
X640990Y1021590D02*
X670960Y1051560D01*
X608330Y1021590D02*
X640990D01*
X720761Y1050290D02*
X720960D01*
X700252Y1070799D02*
X720761Y1050290D01*
X655962Y1070799D02*
X700252D01*
X638753Y1053590D02*
X655962Y1070799D01*
X608330Y1053590D02*
X638753D01*
X492760Y1054970D02*
X493726D01*
X495106Y1053590D01*
X608330D01*
X492077Y1054287D02*
X492760Y1054970D01*
X395795Y1054287D02*
X492077D01*
X394010Y1052502D02*
X395795Y1054287D01*
X394010Y1042670D02*
Y1052502D01*
D77*
X347876Y801303D02*
Y811530D01*
X347876Y801303D02*
X347876Y801303D01*
X345183Y817750D02*
X347876Y815056D01*
Y811530D02*
Y815056D01*
X328575Y817750D02*
X345183D01*
D78*
X331850Y769620D02*
D03*
D79*
X492760Y1029970D02*
D03*
Y1054970D02*
D03*
D80*
X782320Y1051560D02*
D03*
X670960D02*
D03*
D81*
X334010Y1042670D02*
D03*
D82*
X364010Y995670D02*
D03*
D83*
X629920Y457200D02*
D03*
X795020D02*
D03*
X1026160D02*
D03*
X745490Y852170D02*
D03*
X614680D02*
D03*
X914400Y854710D02*
D03*
X929640Y607060D02*
D03*
X654050Y582930D02*
D03*
X937260Y457200D02*
D03*
D84*
X886460D02*
D03*
X821690Y852170D02*
D03*
X796290D02*
D03*
X770890D02*
D03*
X815340Y619760D02*
D03*
Y645160D02*
D03*
Y670560D02*
D03*
Y695960D02*
D03*
X716280Y852170D02*
D03*
X690880D02*
D03*
X665480D02*
D03*
X640080D02*
D03*
X591820Y609600D02*
D03*
Y635000D02*
D03*
Y660400D02*
D03*
X815340Y749300D02*
D03*
X591820Y715010D02*
D03*
Y740410D02*
D03*
Y765810D02*
D03*
Y791210D02*
D03*
X1041400Y854710D02*
D03*
X1016000D02*
D03*
X990600D02*
D03*
X965200D02*
D03*
X939800D02*
D03*
X1005840Y607060D02*
D03*
X980440D02*
D03*
X955040D02*
D03*
X1031240D02*
D03*
X755650Y582930D02*
D03*
X730250D02*
D03*
X704850D02*
D03*
X679450D02*
D03*
X680720Y457200D02*
D03*
X655320D02*
D03*
X718820D02*
D03*
X744220D02*
D03*
X769620D02*
D03*
X835660D02*
D03*
X861060D02*
D03*
X911860D02*
D03*
X975360D02*
D03*
X1000760D02*
D03*
D85*
X989130Y714010D02*
D03*
X983630Y708510D02*
D03*
X972630D02*
D03*
X989130Y725010D02*
D03*
X978130Y714010D02*
D03*
X983630Y719510D02*
D03*
Y730510D02*
D03*
X978130Y725010D02*
D03*
X967130Y714010D02*
D03*
Y725010D02*
D03*
X972630Y719510D02*
D03*
Y730510D02*
D03*
D86*
X815340Y721360D02*
D03*
X591820Y685800D02*
D03*
X815340Y774700D02*
D03*
X591820Y816610D02*
D03*
D87*
X317825Y822650D02*
D03*
Y764850D02*
D03*
D88*
X322825Y750550D02*
D03*
Y836950D02*
D03*
D89*
X281025Y750550D02*
D03*
Y836950D02*
D03*
D90*
X832320Y1050290D02*
D03*
X720960D02*
D03*
D91*
X394010Y1042670D02*
D03*
D92*
X730250Y734060D02*
D03*
X859790Y909320D02*
D03*
X288290Y915670D02*
D03*
X411480Y938530D02*
D03*
X972820Y1062990D02*
D03*
X556260Y1031240D02*
D03*
X605790Y982980D02*
D03*
X798830Y905510D02*
D03*
X883920Y508000D02*
D03*
X862330Y834390D02*
D03*
X892810Y746760D02*
D03*
X883920Y628650D02*
D03*
X941070Y542290D02*
D03*
X800100D02*
D03*
X581660Y549910D02*
D03*
X375920Y511810D02*
D03*
X379730Y600710D02*
D03*
X290830Y605790D02*
D03*
X331470Y580390D02*
D03*
X281940Y664210D02*
D03*
X346710Y629920D02*
D03*
X440690Y857250D02*
D03*
X524510Y881380D02*
D03*
X909320Y1061720D02*
D03*
X977900Y1021080D02*
D03*
X544830Y958850D02*
D03*
X454660Y960120D02*
D03*
X450850Y897890D02*
D03*
X350520Y905510D02*
D03*
X908050Y828040D02*
D03*
X1009620Y982467D02*
D03*
X1002030Y908050D02*
D03*
X975360Y877570D02*
D03*
X877570Y996950D02*
D03*
X751840Y1054100D02*
D03*
X488950Y999490D02*
D03*
X350520Y1041400D02*
D03*
X365760Y977900D02*
D03*
X342900Y840740D02*
D03*
X341630Y756920D02*
D03*
X434340Y765810D02*
D03*
X288290Y706120D02*
D03*
X525780Y594360D02*
D03*
X521970Y524510D02*
D03*
X491490Y495300D02*
D03*
X443230Y482600D02*
D03*
X436880Y461010D02*
D03*
X576580Y443230D02*
D03*
X737870Y648970D02*
D03*
X687070Y920750D02*
D03*
X707390Y975360D02*
D03*
X740410Y985520D02*
D03*
X318770Y704850D02*
D03*
X363220Y694690D02*
D03*
X734060Y623570D02*
D03*
X735330Y788670D02*
D03*
X788670Y726440D02*
D03*
X631190Y821690D02*
D03*
X655320Y764540D02*
D03*
X617220Y927100D02*
D03*
X375920Y788670D02*
D03*
X378460Y838200D02*
D03*
X416560Y698500D02*
D03*
X529590Y807720D02*
D03*
X492760Y795020D02*
D03*
X615950Y882650D02*
D03*
X614680Y900430D02*
D03*
X617220Y916940D02*
D03*
X375920Y697230D02*
D03*
X732790Y655320D02*
D03*
X1047750Y830580D02*
D03*
X571500Y725170D02*
D03*
X643890Y516890D02*
D03*
Y494030D02*
D03*
X777240Y717550D02*
D03*
Y707390D02*
D03*
X744220Y548640D02*
D03*
X797996Y794584D02*
D03*
X795020Y777240D02*
D03*
X769620Y523240D02*
D03*
X1026160Y836930D02*
D03*
X1009412Y836692D02*
D03*
X1014730Y830580D02*
D03*
X889000Y905637D02*
D03*
Y894080D02*
D03*
X676336Y972662D02*
D03*
X698500Y953770D02*
D03*
X673100Y661670D02*
D03*
X742295Y681109D02*
D03*
X750570Y660400D02*
D03*
X1002030Y623570D02*
D03*
X996950Y629920D02*
D03*
X962660Y628650D02*
D03*
X984250Y623570D02*
D03*
X1046480Y656590D02*
D03*
Y626110D02*
D03*
X415888Y779108D02*
D03*
X392333Y759363D02*
D03*
X416368Y767852D02*
D03*
X397510Y711200D02*
D03*
X347876Y796716D02*
D03*
X345440Y774700D02*
D03*
X373380Y665480D02*
D03*
X344170Y825500D02*
D03*
X340360Y807720D02*
D03*
X571500Y693293D02*
D03*
X637540Y707390D02*
D03*
X622300Y708660D02*
D03*
M02*
