G04*
G04 #@! TF.GenerationSoftware,Altium Limited,Altium Designer,25.7.1 (20)*
G04*
G04 Layer_Color=128*
%FSLAX44Y44*%
%MOMM*%
G71*
G04*
G04 #@! TF.SameCoordinates,ACE3B5E4-1C04-4BC4-97EB-CB57C6339309*
G04*
G04*
G04 #@! TF.FilePolarity,Positive*
G04*
G01*
G75*
%ADD11C,0.1270*%
D11*
X488760Y1029970D02*
X496760D01*
X492760Y1025970D02*
Y1033970D01*
X775320Y1051560D02*
X789320D01*
X782320Y1044560D02*
Y1058560D01*
X328930Y1042670D02*
X339090D01*
X334010Y1037590D02*
Y1047750D01*
X358930Y995670D02*
X369090D01*
X364010Y990590D02*
Y1000750D01*
X625475Y457200D02*
X634365D01*
X629920Y452755D02*
Y461645D01*
X790575Y457200D02*
X799465D01*
X795020Y452755D02*
Y461645D01*
X882015Y457200D02*
X890905D01*
X886460Y452755D02*
Y461645D01*
X1021715Y457200D02*
X1030605D01*
X1026160Y452755D02*
Y461645D01*
X987630Y714010D02*
X990630D01*
X989130Y712510D02*
Y715510D01*
X982130Y708510D02*
X985130D01*
X983630Y707010D02*
Y710010D01*
X971130Y708510D02*
X974130D01*
X972630Y707010D02*
Y710010D01*
X987630Y725010D02*
X990630D01*
X989130Y723510D02*
Y726510D01*
X976630Y714010D02*
X979630D01*
X978130Y712510D02*
Y715510D01*
X982130Y719510D02*
X985130D01*
X983630Y718010D02*
Y721010D01*
X982130Y730510D02*
X985130D01*
X983630Y729010D02*
Y732010D01*
X976630Y725010D02*
X979630D01*
X978130Y723510D02*
Y726510D01*
X965630Y714010D02*
X968630D01*
X967130Y712510D02*
Y715510D01*
X965630Y725010D02*
X968630D01*
X967130Y723510D02*
Y726510D01*
X971130Y719510D02*
X974130D01*
X972630Y718010D02*
Y721010D01*
X971130Y730510D02*
X974130D01*
X972630Y729010D02*
Y732010D01*
X980950Y1037590D02*
X1012950D01*
X996950Y1021590D02*
Y1053590D01*
X329440Y535940D02*
X361440D01*
X345440Y519940D02*
Y551940D01*
X817245Y852170D02*
X826135D01*
X821690Y847725D02*
Y856615D01*
X791845Y852170D02*
X800735D01*
X796290Y847725D02*
Y856615D01*
X766445Y852170D02*
X775335D01*
X770890Y847725D02*
Y856615D01*
X741045Y852170D02*
X749935D01*
X745490Y847725D02*
Y856615D01*
X810895Y619760D02*
X819785D01*
X815340Y615315D02*
Y624205D01*
X810895Y645160D02*
X819785D01*
X815340Y640715D02*
Y649605D01*
X810895Y670560D02*
X819785D01*
X815340Y666115D02*
Y675005D01*
X810895Y695960D02*
X819785D01*
X815340Y691515D02*
Y700405D01*
X810895Y721360D02*
X819785D01*
X815340Y716915D02*
Y725805D01*
X711835Y852170D02*
X720725D01*
X716280Y847725D02*
Y856615D01*
X686435Y852170D02*
X695325D01*
X690880Y847725D02*
Y856615D01*
X661035Y852170D02*
X669925D01*
X665480Y847725D02*
Y856615D01*
X635635Y852170D02*
X644525D01*
X640080Y847725D02*
Y856615D01*
X610235Y852170D02*
X619125D01*
X614680Y847725D02*
Y856615D01*
X587375Y609600D02*
X596265D01*
X591820Y605155D02*
Y614045D01*
X587375Y635000D02*
X596265D01*
X591820Y630555D02*
Y639445D01*
X587375Y660400D02*
X596265D01*
X591820Y655955D02*
Y664845D01*
X587375Y685800D02*
X596265D01*
X591820Y681355D02*
Y690245D01*
X314575Y822650D02*
X321075D01*
X317825Y819400D02*
Y825900D01*
X314575Y764850D02*
X321075D01*
X317825Y761600D02*
Y768100D01*
X319825Y750550D02*
X325825D01*
X322825Y747550D02*
Y753550D01*
X319825Y836950D02*
X325825D01*
X322825Y833950D02*
Y839950D01*
X278025Y750550D02*
X284025D01*
X281025Y747550D02*
Y753550D01*
X278025Y836950D02*
X284025D01*
X281025Y833950D02*
Y839950D01*
X810895Y774700D02*
X819785D01*
X815340Y770255D02*
Y779145D01*
X810895Y749300D02*
X819785D01*
X815340Y744855D02*
Y753745D01*
X488760Y1054970D02*
X496760D01*
X492760Y1050970D02*
Y1058970D01*
X825320Y1050290D02*
X839320D01*
X832320Y1043290D02*
Y1057290D01*
X713960Y1050290D02*
X727960D01*
X720960Y1043290D02*
Y1057290D01*
X663960Y1051560D02*
X677960D01*
X670960Y1044560D02*
Y1058560D01*
X587375Y715010D02*
X596265D01*
X591820Y710565D02*
Y719455D01*
X587375Y740410D02*
X596265D01*
X591820Y735965D02*
Y744855D01*
X587375Y765810D02*
X596265D01*
X591820Y761365D02*
Y770255D01*
X587375Y791210D02*
X596265D01*
X591820Y786765D02*
Y795655D01*
X587375Y816610D02*
X596265D01*
X591820Y812165D02*
Y821055D01*
X1036955Y854710D02*
X1045845D01*
X1041400Y850265D02*
Y859155D01*
X1011555Y854710D02*
X1020445D01*
X1016000Y850265D02*
Y859155D01*
X986155Y854710D02*
X995045D01*
X990600Y850265D02*
Y859155D01*
X960755Y854710D02*
X969645D01*
X965200Y850265D02*
Y859155D01*
X935355Y854710D02*
X944245D01*
X939800Y850265D02*
Y859155D01*
X909955Y854710D02*
X918845D01*
X914400Y850265D02*
Y859155D01*
X1001395Y607060D02*
X1010285D01*
X1005840Y602615D02*
Y611505D01*
X975995Y607060D02*
X984885D01*
X980440Y602615D02*
Y611505D01*
X950595Y607060D02*
X959485D01*
X955040Y602615D02*
Y611505D01*
X925195Y607060D02*
X934085D01*
X929640Y602615D02*
Y611505D01*
X1026795Y607060D02*
X1035685D01*
X1031240Y602615D02*
Y611505D01*
X751205Y582930D02*
X760095D01*
X755650Y578485D02*
Y587375D01*
X725805Y582930D02*
X734695D01*
X730250Y578485D02*
Y587375D01*
X700405Y582930D02*
X709295D01*
X704850Y578485D02*
Y587375D01*
X675005Y582930D02*
X683895D01*
X679450Y578485D02*
Y587375D01*
X649605Y582930D02*
X658495D01*
X654050Y578485D02*
Y587375D01*
X388930Y1042670D02*
X399090D01*
X394010Y1037590D02*
Y1047750D01*
X676275Y457200D02*
X685165D01*
X680720Y452755D02*
Y461645D01*
X650875Y457200D02*
X659765D01*
X655320Y452755D02*
Y461645D01*
X714375Y457200D02*
X723265D01*
X718820Y452755D02*
Y461645D01*
X739775Y457200D02*
X748665D01*
X744220Y452755D02*
Y461645D01*
X765175Y457200D02*
X774065D01*
X769620Y452755D02*
Y461645D01*
X831215Y457200D02*
X840105D01*
X835660Y452755D02*
Y461645D01*
X856615Y457200D02*
X865505D01*
X861060Y452755D02*
Y461645D01*
X907415Y457200D02*
X916305D01*
X911860Y452755D02*
Y461645D01*
X932815Y457200D02*
X941705D01*
X937260Y452755D02*
Y461645D01*
X970915Y457200D02*
X979805D01*
X975360Y452755D02*
Y461645D01*
X996315Y457200D02*
X1005205D01*
X1000760Y452755D02*
Y461645D01*
X728726Y734060D02*
X731774D01*
X730250Y732536D02*
Y735584D01*
X858266Y909320D02*
X861314D01*
X859790Y907796D02*
Y910844D01*
X286766Y915670D02*
X289814D01*
X288290Y914146D02*
Y917194D01*
X409956Y938530D02*
X413004D01*
X411480Y937006D02*
Y940054D01*
X971296Y1062990D02*
X974344D01*
X972820Y1061466D02*
Y1064514D01*
X554736Y1031240D02*
X557784D01*
X556260Y1029716D02*
Y1032764D01*
X604266Y982980D02*
X607314D01*
X605790Y981456D02*
Y984504D01*
X797306Y905510D02*
X800354D01*
X798830Y903986D02*
Y907034D01*
X882396Y508000D02*
X885444D01*
X883920Y506476D02*
Y509524D01*
X860806Y834390D02*
X863854D01*
X862330Y832866D02*
Y835914D01*
X891286Y746760D02*
X894334D01*
X892810Y745236D02*
Y748284D01*
X882396Y628650D02*
X885444D01*
X883920Y627126D02*
Y630174D01*
X939546Y542290D02*
X942594D01*
X941070Y540766D02*
Y543814D01*
X798576Y542290D02*
X801624D01*
X800100Y540766D02*
Y543814D01*
X580136Y549910D02*
X583184D01*
X581660Y548386D02*
Y551434D01*
X374396Y511810D02*
X377444D01*
X375920Y510286D02*
Y513334D01*
X378206Y600710D02*
X381254D01*
X379730Y599186D02*
Y602234D01*
X289306Y605790D02*
X292354D01*
X290830Y604266D02*
Y607314D01*
X329946Y580390D02*
X332994D01*
X331470Y578866D02*
Y581914D01*
X280416Y664210D02*
X283464D01*
X281940Y662686D02*
Y665734D01*
X345186Y629920D02*
X348234D01*
X346710Y628396D02*
Y631444D01*
X439166Y857250D02*
X442214D01*
X440690Y855726D02*
Y858774D01*
X522986Y881380D02*
X526034D01*
X524510Y879856D02*
Y882904D01*
X907796Y1061720D02*
X910844D01*
X909320Y1060196D02*
Y1063244D01*
X976376Y1021080D02*
X979424D01*
X977900Y1019556D02*
Y1022604D01*
X543306Y958850D02*
X546354D01*
X544830Y957326D02*
Y960374D01*
X453136Y960120D02*
X456184D01*
X454660Y958596D02*
Y961644D01*
X449326Y897890D02*
X452374D01*
X450850Y896366D02*
Y899414D01*
X348996Y905510D02*
X352044D01*
X350520Y903986D02*
Y907034D01*
X906526Y828040D02*
X909574D01*
X908050Y826516D02*
Y829564D01*
X1008096Y982467D02*
X1011144D01*
X1009620Y980943D02*
Y983991D01*
X1000506Y908050D02*
X1003554D01*
X1002030Y906526D02*
Y909574D01*
X973836Y877570D02*
X976884D01*
X975360Y876046D02*
Y879094D01*
X876046Y996950D02*
X879094D01*
X877570Y995426D02*
Y998474D01*
X750316Y1054100D02*
X753364D01*
X751840Y1052576D02*
Y1055624D01*
X487426Y999490D02*
X490474D01*
X488950Y997966D02*
Y1001014D01*
X348996Y1041400D02*
X352044D01*
X350520Y1039876D02*
Y1042924D01*
X364236Y977900D02*
X367284D01*
X365760Y976376D02*
Y979424D01*
X341376Y840740D02*
X344424D01*
X342900Y839216D02*
Y842264D01*
X340106Y756920D02*
X343154D01*
X341630Y755396D02*
Y758444D01*
X432816Y765810D02*
X435864D01*
X434340Y764286D02*
Y767334D01*
X286766Y706120D02*
X289814D01*
X288290Y704596D02*
Y707644D01*
X524256Y594360D02*
X527304D01*
X525780Y592836D02*
Y595884D01*
X520446Y524510D02*
X523494D01*
X521970Y522986D02*
Y526034D01*
X489966Y495300D02*
X493014D01*
X491490Y493776D02*
Y496824D01*
X441706Y482600D02*
X444754D01*
X443230Y481076D02*
Y484124D01*
X435356Y461010D02*
X438404D01*
X436880Y459486D02*
Y462534D01*
X575056Y443230D02*
X578104D01*
X576580Y441706D02*
Y444754D01*
X736346Y648970D02*
X739394D01*
X737870Y647446D02*
Y650494D01*
X685546Y920750D02*
X688594D01*
X687070Y919226D02*
Y922274D01*
X705866Y975360D02*
X708914D01*
X707390Y973836D02*
Y976884D01*
X738886Y985520D02*
X741934D01*
X740410Y983996D02*
Y987044D01*
X317246Y704850D02*
X320294D01*
X318770Y703326D02*
Y706374D01*
X361696Y694690D02*
X364744D01*
X363220Y693166D02*
Y696214D01*
X732536Y623570D02*
X735584D01*
X734060Y622046D02*
Y625094D01*
X733806Y788670D02*
X736854D01*
X735330Y787146D02*
Y790194D01*
X787146Y726440D02*
X790194D01*
X788670Y724916D02*
Y727964D01*
X629666Y821690D02*
X632714D01*
X631190Y820166D02*
Y823214D01*
X653796Y764540D02*
X656844D01*
X655320Y763016D02*
Y766064D01*
X615696Y927100D02*
X618744D01*
X617220Y925576D02*
Y928624D01*
X374396Y788670D02*
X377444D01*
X375920Y787146D02*
Y790194D01*
X376936Y838200D02*
X379984D01*
X378460Y836676D02*
Y839724D01*
X415036Y698500D02*
X418084D01*
X416560Y696976D02*
Y700024D01*
X528066Y807720D02*
X531114D01*
X529590Y806196D02*
Y809244D01*
X491236Y795020D02*
X494284D01*
X492760Y793496D02*
Y796544D01*
X614426Y882650D02*
X617474D01*
X615950Y881126D02*
Y884174D01*
X613156Y900430D02*
X616204D01*
X614680Y898906D02*
Y901954D01*
X615696Y916940D02*
X618744D01*
X617220Y915416D02*
Y918464D01*
X374396Y697230D02*
X377444D01*
X375920Y695706D02*
Y698754D01*
X731266Y655320D02*
X734314D01*
X732790Y653796D02*
Y656844D01*
X1046226Y830580D02*
X1049274D01*
X1047750Y829056D02*
Y832104D01*
X569976Y725170D02*
X573024D01*
X571500Y723646D02*
Y726694D01*
X642366Y516890D02*
X645414D01*
X643890Y515366D02*
Y518414D01*
X642366Y494030D02*
X645414D01*
X643890Y492506D02*
Y495554D01*
X775716Y717550D02*
X778764D01*
X777240Y716026D02*
Y719074D01*
X775716Y707390D02*
X778764D01*
X777240Y705866D02*
Y708914D01*
X742696Y548640D02*
X745744D01*
X744220Y547116D02*
Y550164D01*
X796472Y794584D02*
X799520D01*
X797996Y793060D02*
Y796108D01*
X793496Y777240D02*
X796544D01*
X795020Y775716D02*
Y778764D01*
X768096Y523240D02*
X771144D01*
X769620Y521716D02*
Y524764D01*
X1024636Y836930D02*
X1027684D01*
X1026160Y835406D02*
Y838454D01*
X1007888Y836692D02*
X1010936D01*
X1009412Y835168D02*
Y838216D01*
X1013206Y830580D02*
X1016254D01*
X1014730Y829056D02*
Y832104D01*
X887476Y905637D02*
X890524D01*
X889000Y904113D02*
Y907161D01*
X887476Y894080D02*
X890524D01*
X889000Y892556D02*
Y895604D01*
X674812Y972662D02*
X677860D01*
X676336Y971138D02*
Y974186D01*
X696976Y953770D02*
X700024D01*
X698500Y952246D02*
Y955294D01*
X671576Y661670D02*
X674624D01*
X673100Y660146D02*
Y663194D01*
X740771Y681109D02*
X743819D01*
X742295Y679585D02*
Y682634D01*
X749046Y660400D02*
X752094D01*
X750570Y658876D02*
Y661924D01*
X1000506Y623570D02*
X1003554D01*
X1002030Y622046D02*
Y625094D01*
X995426Y629920D02*
X998474D01*
X996950Y628396D02*
Y631444D01*
X961136Y628650D02*
X964184D01*
X962660Y627126D02*
Y630174D01*
X982726Y623570D02*
X985774D01*
X984250Y622046D02*
Y625094D01*
X1044956Y656590D02*
X1048004D01*
X1046480Y655066D02*
Y658114D01*
X1044956Y626110D02*
X1048004D01*
X1046480Y624586D02*
Y627634D01*
X414364Y779108D02*
X417412D01*
X415888Y777584D02*
Y780632D01*
X390809Y759363D02*
X393857D01*
X392333Y757839D02*
Y760887D01*
X414844Y767852D02*
X417892D01*
X416368Y766328D02*
Y769376D01*
X395986Y711200D02*
X399034D01*
X397510Y709676D02*
Y712724D01*
X346352Y796716D02*
X349400D01*
X347876Y795192D02*
Y798240D01*
X343916Y774700D02*
X346964D01*
X345440Y773176D02*
Y776224D01*
X371856Y665480D02*
X374904D01*
X373380Y663956D02*
Y667004D01*
X342646Y825500D02*
X345694D01*
X344170Y823976D02*
Y827024D01*
X338836Y807720D02*
X341884D01*
X340360Y806196D02*
Y809244D01*
X569976Y693293D02*
X573024D01*
X571500Y691769D02*
Y694817D01*
X636016Y707390D02*
X639064D01*
X637540Y705866D02*
Y708914D01*
X620776Y708660D02*
X623824D01*
X622300Y707136D02*
Y710184D01*
M02*
